<svg width="778" height="521" viewBox="0 0 778 521" fill="none" xmlns="http://www.w3.org/2000/svg">
<rect width="778" height="521" fill="white"/>
<path d="M602.04 208V206.886L605.485 203.317C605.853 202.929 606.156 202.589 606.395 202.298C606.637 202.003 606.818 201.723 606.937 201.457C607.056 201.192 607.116 200.911 607.116 200.612C607.116 200.274 607.036 199.982 606.877 199.737C606.718 199.489 606.501 199.298 606.226 199.165C605.951 199.03 605.641 198.962 605.296 198.962C604.932 198.962 604.614 199.036 604.342 199.185C604.07 199.335 603.861 199.545 603.715 199.817C603.57 200.089 603.497 200.407 603.497 200.771H602.03C602.03 200.152 602.173 199.61 602.458 199.146C602.743 198.682 603.134 198.322 603.631 198.067C604.128 197.808 604.693 197.679 605.326 197.679C605.966 197.679 606.529 197.807 607.017 198.062C607.507 198.314 607.89 198.658 608.165 199.096C608.44 199.53 608.578 200.021 608.578 200.567C608.578 200.945 608.506 201.315 608.364 201.676C608.225 202.037 607.981 202.44 607.633 202.884C607.285 203.325 606.801 203.86 606.181 204.49L604.158 206.608V206.683H608.742V208H602.04ZM614.171 208.169C613.385 208.166 612.714 207.959 612.157 207.548C611.6 207.137 611.174 206.538 610.879 205.753C610.584 204.967 610.437 204.021 610.437 202.914C610.437 201.81 610.584 200.867 610.879 200.085C611.178 199.303 611.605 198.706 612.162 198.295C612.722 197.884 613.392 197.679 614.171 197.679C614.95 197.679 615.617 197.886 616.174 198.3C616.731 198.711 617.157 199.308 617.452 200.09C617.75 200.869 617.899 201.81 617.899 202.914C617.899 204.024 617.752 204.972 617.457 205.758C617.162 206.54 616.736 207.138 616.179 207.553C615.622 207.964 614.953 208.169 614.171 208.169ZM614.171 206.842C614.86 206.842 615.399 206.505 615.786 205.832C616.177 205.16 616.373 204.187 616.373 202.914C616.373 202.069 616.284 201.355 616.105 200.771C615.929 200.185 615.675 199.741 615.344 199.439C615.016 199.134 614.625 198.982 614.171 198.982C613.485 198.982 612.946 199.32 612.555 199.996C612.164 200.672 611.967 201.645 611.963 202.914C611.963 203.763 612.051 204.48 612.227 205.067C612.406 205.65 612.659 206.093 612.987 206.394C613.316 206.692 613.71 206.842 614.171 206.842ZM619.663 208V206.886L623.108 203.317C623.476 202.929 623.779 202.589 624.018 202.298C624.26 202.003 624.441 201.723 624.56 201.457C624.679 201.192 624.739 200.911 624.739 200.612C624.739 200.274 624.659 199.982 624.5 199.737C624.341 199.489 624.124 199.298 623.849 199.165C623.574 199.03 623.264 198.962 622.919 198.962C622.555 198.962 622.237 199.036 621.965 199.185C621.693 199.335 621.484 199.545 621.338 199.817C621.193 200.089 621.12 200.407 621.12 200.771H619.653C619.653 200.152 619.796 199.61 620.081 199.146C620.366 198.682 620.757 198.322 621.254 198.067C621.751 197.808 622.316 197.679 622.949 197.679C623.589 197.679 624.152 197.807 624.64 198.062C625.13 198.314 625.513 198.658 625.788 199.096C626.063 199.53 626.201 200.021 626.201 200.567C626.201 200.945 626.129 201.315 625.987 201.676C625.848 202.037 625.604 202.44 625.256 202.884C624.908 203.325 624.424 203.86 623.804 204.49L621.781 206.608V206.683H626.365V208H619.663ZM631.794 208.169C631.008 208.166 630.337 207.959 629.78 207.548C629.223 207.137 628.797 206.538 628.502 205.753C628.208 204.967 628.06 204.021 628.06 202.914C628.06 201.81 628.208 200.867 628.502 200.085C628.801 199.303 629.228 198.706 629.785 198.295C630.345 197.884 631.015 197.679 631.794 197.679C632.573 197.679 633.24 197.886 633.797 198.3C634.354 198.711 634.78 199.308 635.075 200.09C635.373 200.869 635.522 201.81 635.522 202.914C635.522 204.024 635.375 204.972 635.08 205.758C634.785 206.54 634.359 207.138 633.802 207.553C633.245 207.964 632.576 208.169 631.794 208.169ZM631.794 206.842C632.483 206.842 633.022 206.505 633.409 205.832C633.801 205.16 633.996 204.187 633.996 202.914C633.996 202.069 633.907 201.355 633.728 200.771C633.552 200.185 633.298 199.741 632.967 199.439C632.639 199.134 632.248 198.982 631.794 198.982C631.108 198.982 630.569 199.32 630.178 199.996C629.787 200.672 629.59 201.645 629.586 202.914C629.586 203.763 629.674 204.48 629.85 205.067C630.029 205.65 630.282 206.093 630.61 206.394C630.939 206.692 631.333 206.842 631.794 206.842ZM645.51 202.263V203.555H640.996V202.263H645.51ZM651.316 208V197.818H654.945C655.737 197.818 656.394 197.962 656.914 198.251C657.434 198.539 657.824 198.933 658.082 199.434C658.341 199.931 658.47 200.491 658.47 201.114C658.47 201.741 658.339 202.304 658.077 202.805C657.819 203.302 657.428 203.696 656.904 203.988C656.384 204.276 655.729 204.42 654.94 204.42H652.444V203.118H654.801C655.301 203.118 655.707 203.032 656.019 202.859C656.331 202.684 656.559 202.445 656.705 202.143C656.851 201.842 656.924 201.499 656.924 201.114C656.924 200.73 656.851 200.388 656.705 200.09C656.559 199.792 656.329 199.558 656.014 199.389C655.702 199.22 655.291 199.136 654.781 199.136H652.852V208H651.316ZM660.152 208V200.364H661.588V201.577H661.668C661.807 201.166 662.052 200.843 662.404 200.607C662.758 200.369 663.159 200.249 663.607 200.249C663.7 200.249 663.809 200.253 663.935 200.259C664.064 200.266 664.165 200.274 664.238 200.284V201.706C664.179 201.689 664.073 201.671 663.92 201.651C663.768 201.628 663.615 201.616 663.463 201.616C663.111 201.616 662.798 201.691 662.523 201.84C662.251 201.986 662.036 202.19 661.877 202.452C661.718 202.71 661.638 203.005 661.638 203.337V208H660.152ZM668.542 208.154C667.79 208.154 667.142 207.993 666.599 207.672C666.058 207.347 665.641 206.891 665.346 206.305C665.054 205.715 664.908 205.024 664.908 204.232C664.908 203.449 665.054 202.76 665.346 202.163C665.641 201.567 666.052 201.101 666.579 200.766C667.109 200.432 667.729 200.264 668.438 200.264C668.869 200.264 669.287 200.335 669.691 200.478C670.095 200.621 670.458 200.844 670.78 201.149C671.101 201.454 671.355 201.85 671.54 202.337C671.726 202.821 671.819 203.41 671.819 204.102V204.629H665.748V203.516H670.362C670.362 203.125 670.282 202.778 670.123 202.477C669.964 202.172 669.741 201.931 669.452 201.756C669.167 201.58 668.832 201.492 668.448 201.492C668.03 201.492 667.666 201.595 667.354 201.8C667.046 202.003 666.807 202.268 666.638 202.596C666.473 202.921 666.39 203.274 666.39 203.655V204.525C666.39 205.035 666.479 205.469 666.658 205.827C666.84 206.185 667.094 206.459 667.419 206.648C667.744 206.833 668.123 206.926 668.557 206.926C668.839 206.926 669.096 206.886 669.328 206.807C669.56 206.724 669.76 206.601 669.93 206.439C670.099 206.277 670.228 206.076 670.317 205.837L671.724 206.091C671.612 206.505 671.409 206.868 671.118 207.18C670.829 207.488 670.466 207.728 670.029 207.901C669.595 208.07 669.099 208.154 668.542 208.154ZM679.19 202.228L677.843 202.467C677.787 202.294 677.697 202.13 677.575 201.974C677.455 201.819 677.293 201.691 677.087 201.592C676.882 201.492 676.625 201.442 676.317 201.442C675.896 201.442 675.545 201.537 675.263 201.726C674.981 201.911 674.84 202.152 674.84 202.447C674.84 202.702 674.935 202.907 675.124 203.063C675.313 203.219 675.617 203.347 676.038 203.446L677.251 203.724C677.954 203.887 678.478 204.137 678.822 204.475C679.167 204.813 679.339 205.252 679.339 205.793C679.339 206.25 679.207 206.658 678.942 207.016C678.68 207.37 678.314 207.649 677.843 207.851C677.376 208.053 676.834 208.154 676.217 208.154C675.362 208.154 674.665 207.972 674.124 207.607C673.584 207.239 673.253 206.717 673.13 206.041L674.567 205.822C674.656 206.197 674.84 206.48 675.119 206.673C675.397 206.862 675.76 206.956 676.207 206.956C676.695 206.956 677.084 206.855 677.376 206.653C677.667 206.447 677.813 206.197 677.813 205.902C677.813 205.663 677.724 205.463 677.545 205.3C677.369 205.138 677.099 205.015 676.734 204.933L675.442 204.649C674.729 204.487 674.202 204.228 673.861 203.874C673.523 203.519 673.354 203.07 673.354 202.526C673.354 202.076 673.48 201.681 673.732 201.343C673.983 201.005 674.331 200.741 674.776 200.553C675.22 200.36 675.728 200.264 676.302 200.264C677.127 200.264 677.777 200.443 678.251 200.801C678.725 201.156 679.038 201.631 679.19 202.228ZM681.953 208.094C681.682 208.094 681.448 207.998 681.252 207.806C681.057 207.611 680.959 207.375 680.959 207.1C680.959 206.828 681.057 206.596 681.252 206.404C681.448 206.209 681.682 206.111 681.953 206.111C682.225 206.111 682.459 206.209 682.654 206.404C682.85 206.596 682.948 206.828 682.948 207.1C682.948 207.282 682.901 207.45 682.808 207.602C682.719 207.751 682.6 207.871 682.45 207.96C682.301 208.05 682.136 208.094 681.953 208.094Z" fill="black"/>
<path d="M348.341 208V206.886L351.786 203.317C352.154 202.929 352.457 202.589 352.696 202.298C352.938 202.003 353.118 201.723 353.238 201.457C353.357 201.192 353.417 200.911 353.417 200.612C353.417 200.274 353.337 199.982 353.178 199.737C353.019 199.489 352.802 199.298 352.527 199.165C352.252 199.03 351.942 198.962 351.597 198.962C351.233 198.962 350.914 199.036 350.643 199.185C350.371 199.335 350.162 199.545 350.016 199.817C349.87 200.089 349.797 200.407 349.797 200.771H348.331C348.331 200.152 348.473 199.61 348.758 199.146C349.043 198.682 349.434 198.322 349.932 198.067C350.429 197.808 350.994 197.679 351.627 197.679C352.267 197.679 352.83 197.807 353.317 198.062C353.808 198.314 354.191 198.658 354.466 199.096C354.741 199.53 354.878 200.021 354.878 200.567C354.878 200.945 354.807 201.315 354.665 201.676C354.525 202.037 354.282 202.44 353.934 202.884C353.586 203.325 353.102 203.86 352.482 204.49L350.459 206.608V206.683H355.042V208H348.341ZM360.471 208.169C359.686 208.166 359.015 207.959 358.458 207.548C357.901 207.137 357.475 206.538 357.18 205.753C356.885 204.967 356.738 204.021 356.738 202.914C356.738 201.81 356.885 200.867 357.18 200.085C357.479 199.303 357.906 198.706 358.463 198.295C359.023 197.884 359.693 197.679 360.471 197.679C361.25 197.679 361.918 197.886 362.475 198.3C363.032 198.711 363.458 199.308 363.753 200.09C364.051 200.869 364.2 201.81 364.2 202.914C364.2 204.024 364.053 204.972 363.758 205.758C363.463 206.54 363.037 207.138 362.48 207.553C361.923 207.964 361.254 208.169 360.471 208.169ZM360.471 206.842C361.161 206.842 361.699 206.505 362.087 205.832C362.478 205.16 362.674 204.187 362.674 202.914C362.674 202.069 362.584 201.355 362.405 200.771C362.23 200.185 361.976 199.741 361.645 199.439C361.317 199.134 360.925 198.982 360.471 198.982C359.785 198.982 359.247 199.32 358.856 199.996C358.465 200.672 358.267 201.645 358.264 202.914C358.264 203.763 358.352 204.48 358.528 205.067C358.706 205.65 358.96 206.093 359.288 206.394C359.616 206.692 360.011 206.842 360.471 206.842ZM369.827 197.818V208H368.286V199.359H368.226L365.79 200.95V199.479L368.33 197.818H369.827ZM375.967 197.679C376.421 197.682 376.868 197.765 377.309 197.928C377.75 198.09 378.147 198.355 378.502 198.723C378.86 199.091 379.145 199.588 379.357 200.214C379.573 200.838 379.682 201.613 379.685 202.541C379.685 203.433 379.596 204.227 379.417 204.923C379.238 205.615 378.981 206.2 378.646 206.678C378.315 207.155 377.912 207.518 377.438 207.766C376.964 208.015 376.431 208.139 375.837 208.139C375.231 208.139 374.692 208.02 374.222 207.781C373.751 207.543 373.368 207.213 373.073 206.792C372.778 206.368 372.594 205.88 372.521 205.33H374.038C374.137 205.768 374.339 206.122 374.644 206.394C374.952 206.663 375.35 206.797 375.837 206.797C376.583 206.797 377.165 206.472 377.582 205.822C378 205.17 378.21 204.258 378.214 203.088H378.134C377.962 203.373 377.746 203.618 377.488 203.824C377.233 204.029 376.946 204.188 376.628 204.301C376.31 204.414 375.97 204.47 375.609 204.47C375.022 204.47 374.488 204.326 374.008 204.038C373.527 203.749 373.144 203.353 372.859 202.849C372.574 202.346 372.432 201.771 372.432 201.124C372.432 200.481 372.578 199.898 372.869 199.374C373.164 198.851 373.575 198.436 374.102 198.131C374.633 197.823 375.254 197.672 375.967 197.679ZM375.972 198.972C375.584 198.972 375.234 199.068 374.923 199.26C374.614 199.449 374.371 199.706 374.192 200.031C374.013 200.352 373.923 200.71 373.923 201.104C373.923 201.499 374.009 201.857 374.182 202.178C374.357 202.496 374.596 202.75 374.898 202.939C375.203 203.125 375.551 203.217 375.942 203.217C376.233 203.217 376.505 203.161 376.757 203.048C377.009 202.936 377.229 202.78 377.418 202.581C377.607 202.379 377.755 202.15 377.861 201.895C377.967 201.64 378.02 201.371 378.02 201.089C378.02 200.715 377.93 200.367 377.751 200.045C377.576 199.724 377.334 199.465 377.026 199.27C376.717 199.071 376.366 198.972 375.972 198.972ZM389.706 202.263V203.555H385.191V202.263H389.706ZM395.372 208V206.886L398.817 203.317C399.185 202.929 399.488 202.589 399.727 202.298C399.969 202.003 400.15 201.723 400.269 201.457C400.388 201.192 400.448 200.911 400.448 200.612C400.448 200.274 400.368 199.982 400.209 199.737C400.05 199.489 399.833 199.298 399.558 199.165C399.283 199.03 398.973 198.962 398.628 198.962C398.264 198.962 397.946 199.036 397.674 199.185C397.402 199.335 397.193 199.545 397.047 199.817C396.902 200.089 396.829 200.407 396.829 200.771H395.362C395.362 200.152 395.505 199.61 395.79 199.146C396.075 198.682 396.466 198.322 396.963 198.067C397.46 197.808 398.025 197.679 398.658 197.679C399.298 197.679 399.861 197.807 400.349 198.062C400.839 198.314 401.222 198.658 401.497 199.096C401.772 199.53 401.91 200.021 401.91 200.567C401.91 200.945 401.838 201.315 401.696 201.676C401.557 202.037 401.313 202.44 400.965 202.884C400.617 203.325 400.133 203.86 399.513 204.49L397.49 206.608V206.683H402.074V208H395.372ZM407.503 208.169C406.717 208.166 406.046 207.959 405.489 207.548C404.932 207.137 404.506 206.538 404.211 205.753C403.916 204.967 403.769 204.021 403.769 202.914C403.769 201.81 403.916 200.867 404.211 200.085C404.51 199.303 404.937 198.706 405.494 198.295C406.054 197.884 406.724 197.679 407.503 197.679C408.282 197.679 408.949 197.886 409.506 198.3C410.063 198.711 410.489 199.308 410.784 200.09C411.082 200.869 411.231 201.81 411.231 202.914C411.231 204.024 411.084 204.972 410.789 205.758C410.494 206.54 410.068 207.138 409.511 207.553C408.954 207.964 408.285 208.169 407.503 208.169ZM407.503 206.842C408.192 206.842 408.731 206.505 409.118 205.832C409.51 205.16 409.705 204.187 409.705 202.914C409.705 202.069 409.616 201.355 409.437 200.771C409.261 200.185 409.007 199.741 408.676 199.439C408.348 199.134 407.957 198.982 407.503 198.982C406.817 198.982 406.278 199.32 405.887 199.996C405.496 200.672 405.299 201.645 405.295 202.914C405.295 203.763 405.383 204.48 405.559 205.067C405.738 205.65 405.991 206.093 406.319 206.394C406.648 206.692 407.042 206.842 407.503 206.842ZM412.995 208V206.886L416.44 203.317C416.808 202.929 417.112 202.589 417.35 202.298C417.592 202.003 417.773 201.723 417.892 201.457C418.011 201.192 418.071 200.911 418.071 200.612C418.071 200.274 417.991 199.982 417.832 199.737C417.673 199.489 417.456 199.298 417.181 199.165C416.906 199.03 416.596 198.962 416.251 198.962C415.887 198.962 415.569 199.036 415.297 199.185C415.025 199.335 414.816 199.545 414.67 199.817C414.525 200.089 414.452 200.407 414.452 200.771H412.985C412.985 200.152 413.128 199.61 413.413 199.146C413.698 198.682 414.089 198.322 414.586 198.067C415.083 197.808 415.648 197.679 416.281 197.679C416.921 197.679 417.484 197.807 417.972 198.062C418.462 198.314 418.845 198.658 419.12 199.096C419.395 199.53 419.533 200.021 419.533 200.567C419.533 200.945 419.461 201.315 419.319 201.676C419.18 202.037 418.936 202.44 418.588 202.884C418.24 203.325 417.756 203.86 417.136 204.49L415.113 206.608V206.683H419.697V208H412.995ZM425.126 208.169C424.34 208.166 423.669 207.959 423.112 207.548C422.555 207.137 422.129 206.538 421.835 205.753C421.54 204.967 421.392 204.021 421.392 202.914C421.392 201.81 421.54 200.867 421.835 200.085C422.133 199.303 422.56 198.706 423.117 198.295C423.677 197.884 424.347 197.679 425.126 197.679C425.905 197.679 426.572 197.886 427.129 198.3C427.686 198.711 428.112 199.308 428.407 200.09C428.705 200.869 428.854 201.81 428.854 202.914C428.854 204.024 428.707 204.972 428.412 205.758C428.117 206.54 427.691 207.138 427.134 207.553C426.577 207.964 425.908 208.169 425.126 208.169ZM425.126 206.842C425.815 206.842 426.354 206.505 426.741 205.832C427.133 205.16 427.328 204.187 427.328 202.914C427.328 202.069 427.239 201.355 427.06 200.771C426.884 200.185 426.63 199.741 426.299 199.439C425.971 199.134 425.58 198.982 425.126 198.982C424.44 198.982 423.901 199.32 423.51 199.996C423.119 200.672 422.922 201.645 422.918 202.914C422.918 203.763 423.006 204.48 423.182 205.067C423.361 205.65 423.614 206.093 423.942 206.394C424.271 206.692 424.665 206.842 425.126 206.842Z" fill="black"/>
<path d="M96.4208 208V206.886L99.8661 203.317C100.234 202.929 100.537 202.589 100.776 202.298C101.018 202.003 101.199 201.723 101.318 201.457C101.437 201.192 101.497 200.911 101.497 200.612C101.497 200.274 101.417 199.982 101.258 199.737C101.099 199.489 100.882 199.298 100.607 199.165C100.332 199.03 100.022 198.962 99.6772 198.962C99.3126 198.962 98.9944 199.036 98.7227 199.185C98.4509 199.335 98.2421 199.545 98.0962 199.817C97.9504 200.089 97.8775 200.407 97.8775 200.771H96.4109C96.4109 200.152 96.5534 199.61 96.8384 199.146C97.1235 198.682 97.5146 198.322 98.0117 198.067C98.5089 197.808 99.074 197.679 99.707 197.679C100.347 197.679 100.91 197.807 101.397 198.062C101.888 198.314 102.271 198.658 102.546 199.096C102.821 199.53 102.958 200.021 102.958 200.567C102.958 200.945 102.887 201.315 102.745 201.676C102.605 202.037 102.362 202.44 102.014 202.884C101.666 203.325 101.182 203.86 100.562 204.49L98.5387 206.608V206.683H103.123V208H96.4208ZM108.551 208.169C107.766 208.166 107.095 207.959 106.538 207.548C105.981 207.137 105.555 206.538 105.26 205.753C104.965 204.967 104.818 204.021 104.818 202.914C104.818 201.81 104.965 200.867 105.26 200.085C105.559 199.303 105.986 198.706 106.543 198.295C107.103 197.884 107.773 197.679 108.551 197.679C109.33 197.679 109.998 197.886 110.555 198.3C111.112 198.711 111.538 199.308 111.833 200.09C112.131 200.869 112.28 201.81 112.28 202.914C112.28 204.024 112.133 204.972 111.838 205.758C111.543 206.54 111.117 207.138 110.56 207.553C110.003 207.964 109.334 208.169 108.551 208.169ZM108.551 206.842C109.241 206.842 109.779 206.505 110.167 205.832C110.558 205.16 110.754 204.187 110.754 202.914C110.754 202.069 110.664 201.355 110.485 200.771C110.31 200.185 110.056 199.741 109.725 199.439C109.397 199.134 109.006 198.982 108.551 198.982C107.865 198.982 107.327 199.32 106.936 199.996C106.545 200.672 106.347 201.645 106.344 202.914C106.344 203.763 106.432 204.48 106.608 205.067C106.787 205.65 107.04 206.093 107.368 206.394C107.696 206.692 108.091 206.842 108.551 206.842ZM117.907 197.818V208H116.366V199.359H116.306L113.87 200.95V199.479L116.41 197.818H117.907ZM124.101 208.139C123.389 208.139 122.759 208.017 122.212 207.771C121.669 207.526 121.243 207.188 120.934 206.757C120.626 206.326 120.474 205.836 120.477 205.286C120.474 204.855 120.562 204.459 120.741 204.097C120.923 203.733 121.17 203.429 121.481 203.188C121.793 202.942 122.141 202.786 122.525 202.72V202.661C122.018 202.538 121.612 202.266 121.307 201.845C121.002 201.424 120.852 200.94 120.855 200.393C120.852 199.873 120.989 199.409 121.268 199.001C121.549 198.59 121.935 198.267 122.426 198.032C122.916 197.797 123.475 197.679 124.101 197.679C124.721 197.679 125.275 197.798 125.762 198.037C126.252 198.272 126.639 198.595 126.92 199.006C127.202 199.414 127.345 199.876 127.348 200.393C127.345 200.94 127.189 201.424 126.881 201.845C126.572 202.266 126.171 202.538 125.677 202.661V202.72C126.059 202.786 126.402 202.942 126.706 203.188C127.015 203.429 127.26 203.733 127.442 204.097C127.628 204.459 127.722 204.855 127.726 205.286C127.722 205.836 127.567 206.326 127.258 206.757C126.95 207.188 126.523 207.526 125.976 207.771C125.432 208.017 124.807 208.139 124.101 208.139ZM124.101 206.881C124.522 206.881 124.887 206.812 125.195 206.673C125.503 206.53 125.742 206.333 125.911 206.081C126.08 205.826 126.166 205.527 126.17 205.186C126.166 204.831 126.073 204.518 125.891 204.246C125.712 203.975 125.469 203.761 125.16 203.605C124.852 203.449 124.499 203.371 124.101 203.371C123.7 203.371 123.344 203.449 123.032 203.605C122.721 203.761 122.476 203.975 122.297 204.246C122.118 204.518 122.03 204.831 122.033 205.186C122.03 205.527 122.111 205.826 122.277 206.081C122.446 206.333 122.686 206.53 122.998 206.673C123.309 206.812 123.677 206.881 124.101 206.881ZM124.101 202.143C124.439 202.143 124.739 202.076 125.001 201.94C125.263 201.804 125.469 201.615 125.618 201.373C125.77 201.131 125.848 200.848 125.851 200.523C125.848 200.205 125.772 199.926 125.623 199.688C125.477 199.449 125.273 199.265 125.011 199.136C124.749 199.003 124.446 198.937 124.101 198.937C123.75 198.937 123.442 199.003 123.177 199.136C122.915 199.265 122.711 199.449 122.565 199.688C122.419 199.926 122.348 200.205 122.351 200.523C122.348 200.848 122.421 201.131 122.57 201.373C122.719 201.615 122.925 201.804 123.187 201.94C123.452 202.076 123.757 202.143 124.101 202.143ZM137.731 202.263V203.555H133.217V202.263H137.731ZM143.397 208V206.886L146.843 203.317C147.211 202.929 147.514 202.589 147.752 202.298C147.994 202.003 148.175 201.723 148.294 201.457C148.414 201.192 148.473 200.911 148.473 200.612C148.473 200.274 148.394 199.982 148.235 199.737C148.076 199.489 147.859 199.298 147.583 199.165C147.308 199.03 146.998 198.962 146.654 198.962C146.289 198.962 145.971 199.036 145.699 199.185C145.427 199.335 145.219 199.545 145.073 199.817C144.927 200.089 144.854 200.407 144.854 200.771H143.387C143.387 200.152 143.53 199.61 143.815 199.146C144.1 198.682 144.491 198.322 144.988 198.067C145.485 197.808 146.051 197.679 146.684 197.679C147.323 197.679 147.887 197.807 148.374 198.062C148.864 198.314 149.247 198.658 149.522 199.096C149.797 199.53 149.935 200.021 149.935 200.567C149.935 200.945 149.864 201.315 149.721 201.676C149.582 202.037 149.338 202.44 148.99 202.884C148.642 203.325 148.158 203.86 147.539 204.49L145.515 206.608V206.683H150.099V208H143.397ZM155.528 208.169C154.743 208.166 154.071 207.959 153.515 207.548C152.958 207.137 152.532 206.538 152.237 205.753C151.942 204.967 151.794 204.021 151.794 202.914C151.794 201.81 151.942 200.867 152.237 200.085C152.535 199.303 152.963 198.706 153.52 198.295C154.08 197.884 154.749 197.679 155.528 197.679C156.307 197.679 156.975 197.886 157.532 198.3C158.088 198.711 158.514 199.308 158.809 200.09C159.108 200.869 159.257 201.81 159.257 202.914C159.257 204.024 159.109 204.972 158.814 205.758C158.519 206.54 158.093 207.138 157.537 207.553C156.98 207.964 156.31 208.169 155.528 208.169ZM155.528 206.842C156.217 206.842 156.756 206.505 157.144 205.832C157.535 205.16 157.73 204.187 157.73 202.914C157.73 202.069 157.641 201.355 157.462 200.771C157.286 200.185 157.033 199.741 156.701 199.439C156.373 199.134 155.982 198.982 155.528 198.982C154.842 198.982 154.303 199.32 153.912 199.996C153.521 200.672 153.324 201.645 153.321 202.914C153.321 203.763 153.408 204.48 153.584 205.067C153.763 205.65 154.017 206.093 154.345 206.394C154.673 206.692 155.067 206.842 155.528 206.842ZM164.883 197.818V208H163.342V199.359H163.282L160.846 200.95V199.479L163.387 197.818H164.883ZM171.023 197.679C171.477 197.682 171.925 197.765 172.366 197.928C172.806 198.09 173.204 198.355 173.559 198.723C173.917 199.091 174.202 199.588 174.414 200.214C174.629 200.838 174.739 201.613 174.742 202.541C174.742 203.433 174.653 204.227 174.474 204.923C174.295 205.615 174.038 206.2 173.703 206.678C173.372 207.155 172.969 207.518 172.495 207.766C172.021 208.015 171.487 208.139 170.894 208.139C170.287 208.139 169.749 208.02 169.278 207.781C168.808 207.543 168.425 207.213 168.13 206.792C167.835 206.368 167.651 205.88 167.578 205.33H169.094C169.194 205.768 169.396 206.122 169.701 206.394C170.009 206.663 170.407 206.797 170.894 206.797C171.64 206.797 172.221 206.472 172.639 205.822C173.057 205.17 173.267 204.258 173.27 203.088H173.191C173.019 203.373 172.803 203.618 172.545 203.824C172.289 204.029 172.003 204.188 171.684 204.301C171.366 204.414 171.027 204.47 170.665 204.47C170.079 204.47 169.545 204.326 169.064 204.038C168.584 203.749 168.201 203.353 167.916 202.849C167.631 202.346 167.488 201.771 167.488 201.124C167.488 200.481 167.634 199.898 167.926 199.374C168.221 198.851 168.632 198.436 169.159 198.131C169.689 197.823 170.311 197.672 171.023 197.679ZM171.028 198.972C170.64 198.972 170.291 199.068 169.979 199.26C169.671 199.449 169.427 199.706 169.248 200.031C169.069 200.352 168.98 200.71 168.98 201.104C168.98 201.499 169.066 201.857 169.238 202.178C169.414 202.496 169.653 202.75 169.954 202.939C170.259 203.125 170.607 203.217 170.998 203.217C171.29 203.217 171.562 203.161 171.814 203.048C172.066 202.936 172.286 202.78 172.475 202.581C172.664 202.379 172.811 202.15 172.917 201.895C173.023 201.64 173.077 201.371 173.077 201.089C173.077 200.715 172.987 200.367 172.808 200.045C172.632 199.724 172.39 199.465 172.082 199.27C171.774 199.071 171.423 198.972 171.028 198.972Z" fill="black"/>
<g filter="url(#filter0_d_2_61)">
<path d="M764.707 260.706C765.097 260.314 765.096 259.681 764.704 259.291L758.328 252.94C757.936 252.55 757.303 252.552 756.913 252.943C756.524 253.334 756.525 253.967 756.916 254.357L762.584 260.003L756.939 265.671C756.549 266.062 756.55 266.695 756.941 267.085C757.333 267.475 757.966 267.474 758.356 267.082L764.707 260.706ZM30.8289 262.455L31.8289 262.453L31.8249 260.453L30.8249 260.455L30.8289 262.455ZM54.8633 260.407L53.8633 260.409L53.8673 262.409L54.8673 262.407L54.8633 260.407ZM88.5211 262.34L89.5211 262.338L89.5171 260.338L88.5171 260.34L88.5211 262.34ZM112.556 260.292L111.556 260.294L111.559 262.294L112.559 262.292L112.556 260.292ZM146.213 262.226L147.213 262.224L147.209 260.224L146.209 260.226L146.213 262.226ZM170.248 260.178L169.248 260.18L169.252 262.18L170.252 262.178L170.248 260.178ZM203.905 262.111L204.905 262.109L204.902 260.109L203.902 260.111L203.905 262.111ZM227.94 260.063L226.94 260.065L226.944 262.065L227.944 262.063L227.94 260.063ZM261.598 261.997L262.598 261.995L262.594 259.995L261.594 259.997L261.598 261.997ZM285.632 259.949L284.632 259.951L284.636 261.951L285.636 261.949L285.632 259.949ZM319.29 261.882L320.29 261.88L320.286 259.88L319.286 259.882L319.29 261.882ZM343.324 259.835L342.324 259.837L342.328 261.837L343.328 261.835L343.324 259.835ZM376.982 261.768L377.982 261.766L377.978 259.766L376.978 259.768L376.982 261.768ZM401.017 259.72L400.017 259.722L400.02 261.722L401.02 261.72L401.017 259.72ZM434.674 261.653L435.674 261.651L435.67 259.651L434.67 259.653L434.674 261.653ZM458.709 259.606L457.709 259.608L457.713 261.608L458.713 261.606L458.709 259.606ZM492.366 261.539L493.366 261.537L493.362 259.537L492.362 259.539L492.366 261.539ZM516.401 259.491L515.401 259.493L515.405 261.493L516.405 261.491L516.401 259.491ZM550.059 261.424L551.059 261.422L551.055 259.422L550.055 259.424L550.059 261.424ZM574.093 259.377L573.093 259.379L573.097 261.379L574.097 261.377L574.093 259.377ZM607.751 261.31L608.751 261.308L608.747 259.308L607.747 259.31L607.751 261.31ZM631.785 259.262L630.785 259.264L630.789 261.264L631.789 261.262L631.785 259.262ZM665.443 261.196L666.443 261.194L666.439 259.194L665.439 259.196L665.443 261.196ZM689.477 259.148L688.477 259.15L688.481 261.15L689.481 261.148L689.477 259.148ZM723.135 261.081L724.135 261.079L724.131 259.079L723.131 259.081L723.135 261.081ZM747.17 259.033L746.17 259.035L746.174 261.035L747.174 261.033L747.17 259.033ZM14.002 262.488L30.8289 262.455L30.8249 260.455L13.998 260.488L14.002 262.488ZM54.8673 262.407L88.5211 262.34L88.5171 260.34L54.8633 260.407L54.8673 262.407ZM112.559 262.292L146.213 262.226L146.209 260.226L112.556 260.292L112.559 262.292ZM170.252 262.178L203.905 262.111L203.902 260.111L170.248 260.178L170.252 262.178ZM227.944 262.063L261.598 261.997L261.594 259.997L227.94 260.063L227.944 262.063ZM285.636 261.949L319.29 261.882L319.286 259.882L285.632 259.949L285.636 261.949ZM343.328 261.835L376.982 261.768L376.978 259.768L343.324 259.835L343.328 261.835ZM401.02 261.72L434.674 261.653L434.67 259.653L401.017 259.72L401.02 261.72ZM458.713 261.606L492.366 261.539L492.362 259.539L458.709 259.606L458.713 261.606ZM516.405 261.491L550.059 261.424L550.055 259.424L516.401 259.491L516.405 261.491ZM574.097 261.377L607.751 261.31L607.747 259.31L574.093 259.377L574.097 261.377ZM631.789 261.262L665.443 261.196L665.439 259.196L631.785 259.262L631.789 261.262ZM689.481 261.148L723.135 261.081L723.131 259.081L689.477 259.148L689.481 261.148ZM747.174 261.033L764.001 261L763.997 259L747.17 259.033L747.174 261.033ZM765.416 261.411C766.195 260.629 766.193 259.362 765.41 258.583L752.657 245.88C751.874 245.101 750.608 245.103 749.828 245.886C749.049 246.669 749.051 247.935 749.834 248.714L761.17 260.006L749.879 271.342C749.099 272.124 749.102 273.391 749.884 274.17C750.667 274.95 751.933 274.947 752.713 274.165L765.416 261.411ZM30.8309 263.455L32.8309 263.451L32.8229 259.451L30.8229 259.455L30.8309 263.455ZM54.8613 259.407L52.8613 259.411L52.8693 263.411L54.8693 263.407L54.8613 259.407ZM88.5231 263.34L90.523 263.336L90.5151 259.336L88.5151 259.34L88.5231 263.34ZM112.554 259.292L110.554 259.296L110.561 263.296L112.561 263.292L112.554 259.292ZM146.215 263.226L148.215 263.222L148.207 259.222L146.207 259.226L146.215 263.226ZM170.246 259.178L168.246 259.182L168.254 263.182L170.254 263.178L170.246 259.178ZM203.907 263.111L205.907 263.107L205.9 259.107L203.9 259.111L203.907 263.111ZM227.938 259.063L225.938 259.067L225.946 263.067L227.946 263.063L227.938 259.063ZM261.6 262.997L263.6 262.993L263.592 258.993L261.592 258.997L261.6 262.997ZM285.63 258.949L283.63 258.953L283.638 262.953L285.638 262.949L285.63 258.949ZM319.292 262.882L321.292 262.878L321.284 258.878L319.284 258.882L319.292 262.882ZM343.322 258.835L341.322 258.839L341.33 262.839L343.33 262.835L343.322 258.835ZM376.984 262.768L378.984 262.764L378.976 258.764L376.976 258.768L376.984 262.768ZM401.015 258.72L399.015 258.724L399.022 262.724L401.022 262.72L401.015 258.72ZM434.676 262.653L436.676 262.649L436.668 258.649L434.668 258.653L434.676 262.653ZM458.707 258.606L456.707 258.61L456.715 262.61L458.715 262.606L458.707 258.606ZM492.368 262.539L494.368 262.535L494.36 258.535L492.36 258.539L492.368 262.539ZM516.399 258.491L514.399 258.495L514.407 262.495L516.407 262.491L516.399 258.491ZM550.061 262.424L552.061 262.42L552.053 258.42L550.053 258.424L550.061 262.424ZM574.091 258.377L572.091 258.381L572.099 262.381L574.099 262.377L574.091 258.377ZM607.753 262.31L609.753 262.306L609.745 258.306L607.745 258.31L607.753 262.31ZM631.783 258.262L629.783 258.266L629.791 262.266L631.791 262.262L631.783 258.262ZM665.445 262.196L667.445 262.192L667.437 258.192L665.437 258.196L665.445 262.196ZM689.475 258.148L687.475 258.152L687.483 262.152L689.483 262.148L689.475 258.148ZM723.137 262.081L725.137 262.077L725.129 258.077L723.129 258.081L723.137 262.081ZM747.168 258.033L745.168 258.037L745.176 262.037L747.176 262.033L747.168 258.033ZM14.004 263.488L30.8309 263.455L30.8229 259.455L13.996 259.488L14.004 263.488ZM54.8693 263.407L88.5231 263.34L88.5151 259.34L54.8613 259.407L54.8693 263.407ZM112.561 263.292L146.215 263.226L146.207 259.226L112.554 259.292L112.561 263.292ZM170.254 263.178L203.907 263.111L203.9 259.111L170.246 259.178L170.254 263.178ZM227.946 263.063L261.6 262.997L261.592 258.997L227.938 259.063L227.946 263.063ZM285.638 262.949L319.292 262.882L319.284 258.882L285.63 258.949L285.638 262.949ZM343.33 262.835L376.984 262.768L376.976 258.768L343.322 258.835L343.33 262.835ZM401.022 262.72L434.676 262.653L434.668 258.653L401.015 258.72L401.022 262.72ZM458.715 262.606L492.368 262.539L492.36 258.539L458.707 258.606L458.715 262.606ZM516.407 262.491L550.061 262.424L550.053 258.424L516.399 258.491L516.407 262.491ZM574.099 262.377L607.753 262.31L607.745 258.31L574.091 258.377L574.099 262.377ZM631.791 262.262L665.445 262.196L665.437 258.196L631.783 258.262L631.791 262.262ZM689.483 262.148L723.137 262.081L723.129 258.081L689.475 258.148L689.483 262.148ZM747.176 262.033L764.002 262L763.995 258L747.168 258.033L747.176 262.033Z" fill="#4D79CE"/>
</g>
<g filter="url(#filter1_d_2_61)">
<circle cx="643" cy="261" r="50" fill="#C5C5C5"/>
</g>
<path d="M641.053 251.545V269H638.632L629.76 256.199H629.598V269H626.964V251.545H629.402L638.283 264.364H638.445V251.545H641.053ZM656.707 257.06C656.542 256.543 656.32 256.08 656.042 255.67C655.769 255.256 655.442 254.903 655.062 254.614C654.681 254.318 654.246 254.094 653.758 253.94C653.275 253.787 652.744 253.71 652.164 253.71C651.181 253.71 650.295 253.963 649.505 254.469C648.715 254.974 648.09 255.716 647.63 256.693C647.175 257.665 646.948 258.855 646.948 260.264C646.948 261.679 647.178 262.875 647.638 263.852C648.099 264.83 648.729 265.571 649.531 266.077C650.332 266.582 651.244 266.835 652.266 266.835C653.215 266.835 654.042 266.642 654.746 266.256C655.457 265.869 656.005 265.324 656.391 264.619C656.783 263.909 656.979 263.074 656.979 262.114L657.661 262.241H652.667V260.068H659.528V262.054C659.528 263.52 659.215 264.793 658.59 265.872C657.971 266.946 657.113 267.776 656.016 268.361C654.925 268.946 653.675 269.239 652.266 269.239C650.687 269.239 649.3 268.875 648.107 268.148C646.92 267.42 645.994 266.389 645.329 265.054C644.664 263.713 644.332 262.122 644.332 260.281C644.332 258.889 644.525 257.639 644.911 256.531C645.298 255.423 645.84 254.483 646.539 253.71C647.244 252.932 648.07 252.338 649.019 251.929C649.974 251.514 651.016 251.307 652.147 251.307C653.09 251.307 653.968 251.446 654.781 251.724C655.599 252.003 656.326 252.398 656.962 252.909C657.604 253.42 658.136 254.028 658.556 254.733C658.977 255.432 659.261 256.207 659.408 257.06H656.707Z" fill="white"/>
<g filter="url(#filter2_d_2_61)">
<circle cx="389" cy="261" r="50" fill="#C5C5C5"/>
</g>
<path d="M365.25 251.545H368.446L374.002 265.114H374.207L379.764 251.545H382.96V269H380.454V256.369H380.292L375.145 268.974H373.065L367.917 256.361H367.755V269H365.25V251.545ZM386.789 269V251.545H393.01C394.368 251.545 395.493 251.793 396.385 252.287C397.277 252.781 397.945 253.457 398.388 254.315C398.831 255.168 399.053 256.128 399.053 257.196C399.053 258.27 398.828 259.236 398.38 260.094C397.936 260.946 397.266 261.622 396.368 262.122C395.476 262.616 394.354 262.864 393.002 262.864H388.723V260.631H392.763C393.621 260.631 394.317 260.483 394.851 260.188C395.385 259.886 395.777 259.477 396.027 258.96C396.277 258.443 396.402 257.855 396.402 257.196C396.402 256.537 396.277 255.952 396.027 255.44C395.777 254.929 395.382 254.528 394.843 254.239C394.309 253.949 393.604 253.804 392.729 253.804H389.422V269H386.789ZM411.66 256.131C411.569 255.324 411.194 254.699 410.535 254.256C409.876 253.807 409.047 253.582 408.047 253.582C407.331 253.582 406.711 253.696 406.189 253.923C405.666 254.145 405.26 254.452 404.97 254.844C404.686 255.23 404.544 255.67 404.544 256.165C404.544 256.58 404.64 256.937 404.833 257.239C405.032 257.54 405.291 257.793 405.609 257.997C405.933 258.196 406.279 258.364 406.649 258.5C407.018 258.631 407.373 258.739 407.714 258.824L409.419 259.267C409.975 259.403 410.547 259.588 411.132 259.821C411.717 260.054 412.26 260.361 412.76 260.741C413.26 261.122 413.663 261.594 413.97 262.156C414.282 262.719 414.439 263.392 414.439 264.176C414.439 265.165 414.183 266.043 413.672 266.81C413.166 267.577 412.43 268.182 411.464 268.625C410.504 269.068 409.342 269.29 407.978 269.29C406.672 269.29 405.541 269.082 404.586 268.668C403.632 268.253 402.885 267.665 402.345 266.903C401.805 266.136 401.507 265.227 401.45 264.176H404.092C404.143 264.807 404.348 265.332 404.706 265.753C405.069 266.168 405.532 266.477 406.095 266.682C406.663 266.881 407.285 266.98 407.961 266.98C408.706 266.98 409.368 266.864 409.947 266.631C410.532 266.392 410.993 266.062 411.328 265.642C411.663 265.216 411.831 264.719 411.831 264.151C411.831 263.634 411.683 263.21 411.387 262.881C411.098 262.551 410.703 262.278 410.203 262.062C409.708 261.847 409.149 261.656 408.524 261.491L406.461 260.929C405.064 260.548 403.956 259.989 403.137 259.25C402.325 258.511 401.919 257.534 401.919 256.318C401.919 255.312 402.191 254.435 402.737 253.685C403.282 252.935 404.021 252.352 404.953 251.938C405.885 251.517 406.936 251.307 408.106 251.307C409.288 251.307 410.331 251.514 411.234 251.929C412.143 252.344 412.859 252.915 413.382 253.642C413.904 254.364 414.177 255.193 414.2 256.131H411.66Z" fill="white"/>
<g filter="url(#filter3_d_2_61)">
<circle cx="135" cy="261" r="50" fill="#C5C5C5"/>
</g>
<path d="M123.439 251.545H126.081V263.026C126.081 264.247 125.794 265.33 125.22 266.273C124.646 267.21 123.839 267.949 122.8 268.489C121.76 269.023 120.541 269.29 119.143 269.29C117.751 269.29 116.536 269.023 115.496 268.489C114.456 267.949 113.649 267.21 113.075 266.273C112.501 265.33 112.214 264.247 112.214 263.026V251.545H114.848V262.812C114.848 263.602 115.021 264.304 115.368 264.918C115.72 265.531 116.217 266.014 116.859 266.366C117.501 266.713 118.263 266.886 119.143 266.886C120.03 266.886 120.794 266.713 121.436 266.366C122.084 266.014 122.578 265.531 122.919 264.918C123.266 264.304 123.439 263.602 123.439 262.812V251.545ZM144.407 257.222H141.748C141.646 256.653 141.455 256.153 141.177 255.722C140.898 255.29 140.558 254.923 140.154 254.622C139.751 254.321 139.299 254.094 138.799 253.94C138.305 253.787 137.779 253.71 137.222 253.71C136.217 253.71 135.316 253.963 134.521 254.469C133.731 254.974 133.106 255.716 132.646 256.693C132.191 257.67 131.964 258.864 131.964 260.273C131.964 261.693 132.191 262.892 132.646 263.869C133.106 264.847 133.734 265.585 134.529 266.085C135.325 266.585 136.219 266.835 137.214 266.835C137.765 266.835 138.288 266.761 138.782 266.614C139.282 266.46 139.734 266.236 140.137 265.94C140.54 265.645 140.881 265.284 141.16 264.858C141.444 264.426 141.64 263.932 141.748 263.375L144.407 263.384C144.265 264.241 143.989 265.031 143.58 265.753C143.177 266.469 142.657 267.088 142.021 267.611C141.39 268.128 140.668 268.528 139.856 268.812C139.043 269.097 138.157 269.239 137.197 269.239C135.685 269.239 134.339 268.881 133.157 268.165C131.975 267.443 131.043 266.412 130.362 265.071C129.685 263.73 129.347 262.131 129.347 260.273C129.347 258.409 129.688 256.81 130.37 255.474C131.052 254.134 131.984 253.105 133.165 252.389C134.347 251.668 135.691 251.307 137.197 251.307C138.123 251.307 138.987 251.44 139.788 251.707C140.594 251.969 141.319 252.355 141.961 252.866C142.603 253.372 143.134 253.991 143.555 254.724C143.975 255.452 144.259 256.284 144.407 257.222ZM147.558 269V251.545H158.382V253.812H150.192V259.131H157.607V261.389H150.192V269H147.558Z" fill="white"/>
<defs>
<filter id="filter0_d_2_61" x="9.99603" y="245.297" width="760.003" height="37.4557" filterUnits="userSpaceOnUse" color-interpolation-filters="sRGB">
<feFlood flood-opacity="0" result="BackgroundImageFix"/>
<feColorMatrix in="SourceAlpha" type="matrix" values="0 0 0 0 0 0 0 0 0 0 0 0 0 0 0 0 0 0 127 0" result="hardAlpha"/>
<feOffset dy="4"/>
<feGaussianBlur stdDeviation="2"/>
<feComposite in2="hardAlpha" operator="out"/>
<feColorMatrix type="matrix" values="0 0 0 0 0 0 0 0 0 0 0 0 0 0 0 0 0 0 0.25 0"/>
<feBlend mode="normal" in2="BackgroundImageFix" result="effect1_dropShadow_2_61"/>
<feBlend mode="normal" in="SourceGraphic" in2="effect1_dropShadow_2_61" result="shape"/>
</filter>
<filter id="filter1_d_2_61" x="589" y="211" width="108" height="108" filterUnits="userSpaceOnUse" color-interpolation-filters="sRGB">
<feFlood flood-opacity="0" result="BackgroundImageFix"/>
<feColorMatrix in="SourceAlpha" type="matrix" values="0 0 0 0 0 0 0 0 0 0 0 0 0 0 0 0 0 0 127 0" result="hardAlpha"/>
<feOffset dy="4"/>
<feGaussianBlur stdDeviation="2"/>
<feComposite in2="hardAlpha" operator="out"/>
<feColorMatrix type="matrix" values="0 0 0 0 0 0 0 0 0 0 0 0 0 0 0 0 0 0 0.25 0"/>
<feBlend mode="normal" in2="BackgroundImageFix" result="effect1_dropShadow_2_61"/>
<feBlend mode="normal" in="SourceGraphic" in2="effect1_dropShadow_2_61" result="shape"/>
</filter>
<filter id="filter2_d_2_61" x="335" y="211" width="108" height="108" filterUnits="userSpaceOnUse" color-interpolation-filters="sRGB">
<feFlood flood-opacity="0" result="BackgroundImageFix"/>
<feColorMatrix in="SourceAlpha" type="matrix" values="0 0 0 0 0 0 0 0 0 0 0 0 0 0 0 0 0 0 127 0" result="hardAlpha"/>
<feOffset dy="4"/>
<feGaussianBlur stdDeviation="2"/>
<feComposite in2="hardAlpha" operator="out"/>
<feColorMatrix type="matrix" values="0 0 0 0 0 0 0 0 0 0 0 0 0 0 0 0 0 0 0.25 0"/>
<feBlend mode="normal" in2="BackgroundImageFix" result="effect1_dropShadow_2_61"/>
<feBlend mode="normal" in="SourceGraphic" in2="effect1_dropShadow_2_61" result="shape"/>
</filter>
<filter id="filter3_d_2_61" x="81" y="211" width="108" height="108" filterUnits="userSpaceOnUse" color-interpolation-filters="sRGB">
<feFlood flood-opacity="0" result="BackgroundImageFix"/>
<feColorMatrix in="SourceAlpha" type="matrix" values="0 0 0 0 0 0 0 0 0 0 0 0 0 0 0 0 0 0 127 0" result="hardAlpha"/>
<feOffset dy="4"/>
<feGaussianBlur stdDeviation="2"/>
<feComposite in2="hardAlpha" operator="out"/>
<feColorMatrix type="matrix" values="0 0 0 0 0 0 0 0 0 0 0 0 0 0 0 0 0 0 0.25 0"/>
<feBlend mode="normal" in2="BackgroundImageFix" result="effect1_dropShadow_2_61"/>
<feBlend mode="normal" in="SourceGraphic" in2="effect1_dropShadow_2_61" result="shape"/>
</filter>
</defs>
</svg>
