<svg width="778" height="164" viewBox="0 0 778 164" fill="none" xmlns="http://www.w3.org/2000/svg">
<rect width="778" height="164" fill="white"/>
<path d="M602.04 30V28.8864L605.485 25.3168C605.853 24.929 606.156 24.5893 606.395 24.2976C606.637 24.0026 606.818 23.7225 606.937 23.4574C607.056 23.1922 607.116 22.9105 607.116 22.6122C607.116 22.2741 607.036 21.9825 606.877 21.7372C606.718 21.4886 606.501 21.2981 606.226 21.1655C605.951 21.0296 605.641 20.9616 605.296 20.9616C604.932 20.9616 604.614 21.0362 604.342 21.1854C604.07 21.3345 603.861 21.545 603.715 21.8168C603.57 22.0885 603.497 22.4067 603.497 22.7713H602.03C602.03 22.1515 602.173 21.6096 602.458 21.1456C602.743 20.6816 603.134 20.322 603.631 20.0668C604.128 19.8082 604.693 19.679 605.326 19.679C605.966 19.679 606.529 19.8066 607.017 20.0618C607.507 20.3137 607.89 20.6584 608.165 21.0959C608.44 21.5301 608.578 22.0206 608.578 22.5675C608.578 22.9453 608.506 23.3149 608.364 23.6761C608.225 24.0374 607.981 24.4401 607.633 24.8842C607.285 25.325 606.801 25.8603 606.181 26.4901L604.158 28.608V28.6825H608.742V30H602.04ZM614.171 30.169C613.385 30.1657 612.714 29.9586 612.157 29.5476C611.6 29.1366 611.174 28.5384 610.879 27.7528C610.584 26.9673 610.437 26.0211 610.437 24.9141C610.437 23.8104 610.584 22.8674 610.879 22.0852C611.178 21.303 611.605 20.7064 612.162 20.2955C612.722 19.8845 613.392 19.679 614.171 19.679C614.95 19.679 615.617 19.8861 616.174 20.3004C616.731 20.7114 617.157 21.308 617.452 22.0902C617.75 22.8691 617.899 23.8104 617.899 24.9141C617.899 26.0244 617.752 26.9723 617.457 27.7578C617.162 28.54 616.736 29.1383 616.179 29.5526C615.622 29.9635 614.953 30.169 614.171 30.169ZM614.171 28.8416C614.86 28.8416 615.399 28.5052 615.786 27.8324C616.177 27.1596 616.373 26.1868 616.373 24.9141C616.373 24.0689 616.284 23.3546 616.105 22.7713C615.929 22.1847 615.675 21.7405 615.344 21.4389C615.016 21.134 614.625 20.9815 614.171 20.9815C613.485 20.9815 612.946 21.3196 612.555 21.9957C612.164 22.6719 611.967 23.6446 611.963 24.9141C611.963 25.7625 612.051 26.4801 612.227 27.0668C612.406 27.6501 612.659 28.0926 612.987 28.3942C613.316 28.6925 613.71 28.8416 614.171 28.8416ZM619.663 30V28.8864L623.108 25.3168C623.476 24.929 623.779 24.5893 624.018 24.2976C624.26 24.0026 624.441 23.7225 624.56 23.4574C624.679 23.1922 624.739 22.9105 624.739 22.6122C624.739 22.2741 624.659 21.9825 624.5 21.7372C624.341 21.4886 624.124 21.2981 623.849 21.1655C623.574 21.0296 623.264 20.9616 622.919 20.9616C622.555 20.9616 622.237 21.0362 621.965 21.1854C621.693 21.3345 621.484 21.545 621.338 21.8168C621.193 22.0885 621.12 22.4067 621.12 22.7713H619.653C619.653 22.1515 619.796 21.6096 620.081 21.1456C620.366 20.6816 620.757 20.322 621.254 20.0668C621.751 19.8082 622.316 19.679 622.949 19.679C623.589 19.679 624.152 19.8066 624.64 20.0618C625.13 20.3137 625.513 20.6584 625.788 21.0959C626.063 21.5301 626.201 22.0206 626.201 22.5675C626.201 22.9453 626.129 23.3149 625.987 23.6761C625.848 24.0374 625.604 24.4401 625.256 24.8842C624.908 25.325 624.424 25.8603 623.804 26.4901L621.781 28.608V28.6825H626.365V30H619.663ZM631.794 30.169C631.008 30.1657 630.337 29.9586 629.78 29.5476C629.223 29.1366 628.797 28.5384 628.502 27.7528C628.208 26.9673 628.06 26.0211 628.06 24.9141C628.06 23.8104 628.208 22.8674 628.502 22.0852C628.801 21.303 629.228 20.7064 629.785 20.2955C630.345 19.8845 631.015 19.679 631.794 19.679C632.573 19.679 633.24 19.8861 633.797 20.3004C634.354 20.7114 634.78 21.308 635.075 22.0902C635.373 22.8691 635.522 23.8104 635.522 24.9141C635.522 26.0244 635.375 26.9723 635.08 27.7578C634.785 28.54 634.359 29.1383 633.802 29.5526C633.245 29.9635 632.576 30.169 631.794 30.169ZM631.794 28.8416C632.483 28.8416 633.022 28.5052 633.409 27.8324C633.801 27.1596 633.996 26.1868 633.996 24.9141C633.996 24.0689 633.907 23.3546 633.728 22.7713C633.552 22.1847 633.298 21.7405 632.967 21.4389C632.639 21.134 632.248 20.9815 631.794 20.9815C631.108 20.9815 630.569 21.3196 630.178 21.9957C629.787 22.6719 629.59 23.6446 629.586 24.9141C629.586 25.7625 629.674 26.4801 629.85 27.0668C630.029 27.6501 630.282 28.0926 630.61 28.3942C630.939 28.6925 631.333 28.8416 631.794 28.8416ZM645.51 24.2628V25.5554H640.996V24.2628H645.51ZM651.316 30V19.8182H654.945C655.737 19.8182 656.394 19.9624 656.914 20.2507C657.434 20.5391 657.824 20.9335 658.082 21.4339C658.341 21.9311 658.47 22.4912 658.47 23.1143C658.47 23.7408 658.339 24.3042 658.077 24.8047C657.819 25.3018 657.428 25.6963 656.904 25.9879C656.384 26.2763 655.729 26.4205 654.94 26.4205H652.444V25.1179H654.801C655.301 25.1179 655.707 25.0317 656.019 24.8594C656.331 24.6837 656.559 24.4451 656.705 24.1435C656.851 23.8419 656.924 23.4988 656.924 23.1143C656.924 22.7299 656.851 22.3885 656.705 22.0902C656.559 21.7919 656.329 21.5582 656.014 21.3892C655.702 21.2202 655.291 21.1357 654.781 21.1357H652.852V30H651.316ZM660.152 30V22.3636H661.588V23.5767H661.668C661.807 23.1657 662.052 22.8426 662.404 22.6072C662.758 22.3686 663.159 22.2493 663.607 22.2493C663.7 22.2493 663.809 22.2526 663.935 22.2592C664.064 22.2659 664.165 22.2741 664.238 22.2841V23.706C664.179 23.6894 664.073 23.6712 663.92 23.6513C663.768 23.6281 663.615 23.6165 663.463 23.6165C663.111 23.6165 662.798 23.6911 662.523 23.8402C662.251 23.986 662.036 24.1899 661.877 24.4517C661.718 24.7102 661.638 25.0052 661.638 25.3366V30H660.152ZM668.542 30.1541C667.79 30.1541 667.142 29.9934 666.599 29.6719C666.058 29.3471 665.641 28.8913 665.346 28.3047C665.054 27.7147 664.908 27.0237 664.908 26.2315C664.908 25.4493 665.054 24.7599 665.346 24.1634C665.641 23.5668 666.052 23.1011 666.579 22.7663C667.109 22.4316 667.729 22.2642 668.438 22.2642C668.869 22.2642 669.287 22.3355 669.691 22.478C670.095 22.6205 670.458 22.8442 670.78 23.1491C671.101 23.4541 671.355 23.8501 671.54 24.3374C671.726 24.8213 671.819 25.4096 671.819 26.1023V26.6293H665.748V25.5156H670.362C670.362 25.1245 670.282 24.7782 670.123 24.4766C669.964 24.1716 669.741 23.9313 669.452 23.7557C669.167 23.58 668.832 23.4922 668.448 23.4922C668.03 23.4922 667.666 23.5949 667.354 23.8004C667.046 24.0026 666.807 24.2678 666.638 24.5959C666.473 24.9207 666.39 25.2737 666.39 25.6548V26.5249C666.39 27.0353 666.479 27.4695 666.658 27.8274C666.84 28.1854 667.094 28.4588 667.419 28.6477C667.744 28.8333 668.123 28.9261 668.557 28.9261C668.839 28.9261 669.096 28.8864 669.328 28.8068C669.56 28.724 669.76 28.6013 669.93 28.4389C670.099 28.2765 670.228 28.076 670.317 27.8374L671.724 28.0909C671.612 28.5052 671.409 28.8681 671.118 29.1797C670.829 29.4879 670.466 29.7282 670.029 29.9006C669.595 30.0696 669.099 30.1541 668.542 30.1541ZM679.19 24.228L677.843 24.4666C677.787 24.2943 677.697 24.1302 677.575 23.9744C677.455 23.8187 677.293 23.6911 677.087 23.5916C676.882 23.4922 676.625 23.4425 676.317 23.4425C675.896 23.4425 675.545 23.5369 675.263 23.7259C674.981 23.9115 674.84 24.1518 674.84 24.4467C674.84 24.7019 674.935 24.9074 675.124 25.0632C675.313 25.219 675.617 25.3466 676.038 25.446L677.251 25.7244C677.954 25.8868 678.478 26.1371 678.822 26.4751C679.167 26.8132 679.339 27.2524 679.339 27.7926C679.339 28.25 679.207 28.6577 678.942 29.0156C678.68 29.3703 678.314 29.6487 677.843 29.8509C677.376 30.053 676.834 30.1541 676.217 30.1541C675.362 30.1541 674.665 29.9718 674.124 29.6072C673.584 29.2393 673.253 28.7173 673.13 28.0412L674.567 27.8224C674.656 28.197 674.84 28.4804 675.119 28.6726C675.397 28.8615 675.76 28.956 676.207 28.956C676.695 28.956 677.084 28.8549 677.376 28.6527C677.667 28.4472 677.813 28.197 677.813 27.902C677.813 27.6634 677.724 27.4628 677.545 27.3004C677.369 27.138 677.099 27.0154 676.734 26.9325L675.442 26.6491C674.729 26.4867 674.202 26.2282 673.861 25.8736C673.523 25.5189 673.354 25.0698 673.354 24.5263C673.354 24.0755 673.48 23.6811 673.732 23.343C673.983 23.005 674.331 22.7415 674.776 22.5526C675.22 22.3603 675.728 22.2642 676.302 22.2642C677.127 22.2642 677.777 22.4432 678.251 22.8011C678.725 23.1558 679.038 23.6314 679.19 24.228ZM681.953 30.0945C681.682 30.0945 681.448 29.9983 681.252 29.8061C681.057 29.6106 680.959 29.3752 680.959 29.1001C680.959 28.8284 681.057 28.5964 681.252 28.4041C681.448 28.2086 681.682 28.1108 681.953 28.1108C682.225 28.1108 682.459 28.2086 682.654 28.4041C682.85 28.5964 682.948 28.8284 682.948 29.1001C682.948 29.2824 682.901 29.4498 682.808 29.6023C682.719 29.7514 682.6 29.8707 682.45 29.9602C682.301 30.0497 682.136 30.0945 681.953 30.0945Z" fill="black"/>
<path d="M348.341 30V28.8864L351.786 25.3168C352.154 24.929 352.457 24.5893 352.696 24.2976C352.938 24.0026 353.118 23.7225 353.238 23.4574C353.357 23.1922 353.417 22.9105 353.417 22.6122C353.417 22.2741 353.337 21.9825 353.178 21.7372C353.019 21.4886 352.802 21.2981 352.527 21.1655C352.252 21.0296 351.942 20.9616 351.597 20.9616C351.233 20.9616 350.914 21.0362 350.643 21.1854C350.371 21.3345 350.162 21.545 350.016 21.8168C349.87 22.0885 349.797 22.4067 349.797 22.7713H348.331C348.331 22.1515 348.473 21.6096 348.758 21.1456C349.043 20.6816 349.434 20.322 349.932 20.0668C350.429 19.8082 350.994 19.679 351.627 19.679C352.267 19.679 352.83 19.8066 353.317 20.0618C353.808 20.3137 354.191 20.6584 354.466 21.0959C354.741 21.5301 354.878 22.0206 354.878 22.5675C354.878 22.9453 354.807 23.3149 354.665 23.6761C354.525 24.0374 354.282 24.4401 353.934 24.8842C353.586 25.325 353.102 25.8603 352.482 26.4901L350.459 28.608V28.6825H355.042V30H348.341ZM360.471 30.169C359.686 30.1657 359.015 29.9586 358.458 29.5476C357.901 29.1366 357.475 28.5384 357.18 27.7528C356.885 26.9673 356.738 26.0211 356.738 24.9141C356.738 23.8104 356.885 22.8674 357.18 22.0852C357.479 21.303 357.906 20.7064 358.463 20.2955C359.023 19.8845 359.693 19.679 360.471 19.679C361.25 19.679 361.918 19.8861 362.475 20.3004C363.032 20.7114 363.458 21.308 363.753 22.0902C364.051 22.8691 364.2 23.8104 364.2 24.9141C364.2 26.0244 364.053 26.9723 363.758 27.7578C363.463 28.54 363.037 29.1383 362.48 29.5526C361.923 29.9635 361.254 30.169 360.471 30.169ZM360.471 28.8416C361.161 28.8416 361.699 28.5052 362.087 27.8324C362.478 27.1596 362.674 26.1868 362.674 24.9141C362.674 24.0689 362.584 23.3546 362.405 22.7713C362.23 22.1847 361.976 21.7405 361.645 21.4389C361.317 21.134 360.925 20.9815 360.471 20.9815C359.785 20.9815 359.247 21.3196 358.856 21.9957C358.465 22.6719 358.267 23.6446 358.264 24.9141C358.264 25.7625 358.352 26.4801 358.528 27.0668C358.706 27.6501 358.96 28.0926 359.288 28.3942C359.616 28.6925 360.011 28.8416 360.471 28.8416ZM369.827 19.8182V30H368.286V21.3594H368.226L365.79 22.9503V21.4787L368.33 19.8182H369.827ZM375.967 19.679C376.421 19.6823 376.868 19.7652 377.309 19.9276C377.75 20.09 378.147 20.3551 378.502 20.723C378.86 21.0909 379.145 21.5881 379.357 22.2145C379.573 22.8376 379.682 23.6132 379.685 24.5412C379.685 25.4328 379.596 26.2266 379.417 26.9226C379.238 27.6153 378.981 28.2003 378.646 28.6776C378.315 29.1548 377.912 29.5178 377.438 29.7663C376.964 30.0149 376.431 30.1392 375.837 30.1392C375.231 30.1392 374.692 30.0199 374.222 29.7812C373.751 29.5426 373.368 29.2128 373.073 28.7919C372.778 28.3677 372.594 27.8804 372.521 27.3303H374.038C374.137 27.7678 374.339 28.1224 374.644 28.3942C374.952 28.6626 375.35 28.7969 375.837 28.7969C376.583 28.7969 377.165 28.4721 377.582 27.8224C378 27.1695 378.21 26.258 378.214 25.0881H378.134C377.962 25.3731 377.746 25.6184 377.488 25.8239C377.233 26.0294 376.946 26.1884 376.628 26.3011C376.31 26.4138 375.97 26.4702 375.609 26.4702C375.022 26.4702 374.488 26.326 374.008 26.0376C373.527 25.7493 373.144 25.3532 372.859 24.8494C372.574 24.3456 372.432 23.7706 372.432 23.1243C372.432 22.4813 372.578 21.898 372.869 21.3743C373.164 20.8506 373.575 20.4363 374.102 20.1314C374.633 19.8232 375.254 19.6723 375.967 19.679ZM375.972 20.9716C375.584 20.9716 375.234 21.0677 374.923 21.2599C374.614 21.4489 374.371 21.7057 374.192 22.0305C374.013 22.352 373.923 22.71 373.923 23.1044C373.923 23.4988 374.009 23.8568 374.182 24.1783C374.357 24.4964 374.596 24.75 374.898 24.9389C375.203 25.1245 375.551 25.2173 375.942 25.2173C376.233 25.2173 376.505 25.161 376.757 25.0483C377.009 24.9356 377.229 24.7798 377.418 24.581C377.607 24.3788 377.755 24.1501 377.861 23.8949C377.967 23.6397 378.02 23.3712 378.02 23.0895C378.02 22.715 377.93 22.367 377.751 22.0455C377.576 21.724 377.334 21.4654 377.026 21.2699C376.717 21.071 376.366 20.9716 375.972 20.9716ZM389.706 24.2628V25.5554H385.191V24.2628H389.706ZM395.372 30V28.8864L398.817 25.3168C399.185 24.929 399.488 24.5893 399.727 24.2976C399.969 24.0026 400.15 23.7225 400.269 23.4574C400.388 23.1922 400.448 22.9105 400.448 22.6122C400.448 22.2741 400.368 21.9825 400.209 21.7372C400.05 21.4886 399.833 21.2981 399.558 21.1655C399.283 21.0296 398.973 20.9616 398.628 20.9616C398.264 20.9616 397.946 21.0362 397.674 21.1854C397.402 21.3345 397.193 21.545 397.047 21.8168C396.902 22.0885 396.829 22.4067 396.829 22.7713H395.362C395.362 22.1515 395.505 21.6096 395.79 21.1456C396.075 20.6816 396.466 20.322 396.963 20.0668C397.46 19.8082 398.025 19.679 398.658 19.679C399.298 19.679 399.861 19.8066 400.349 20.0618C400.839 20.3137 401.222 20.6584 401.497 21.0959C401.772 21.5301 401.91 22.0206 401.91 22.5675C401.91 22.9453 401.838 23.3149 401.696 23.6761C401.557 24.0374 401.313 24.4401 400.965 24.8842C400.617 25.325 400.133 25.8603 399.513 26.4901L397.49 28.608V28.6825H402.074V30H395.372ZM407.503 30.169C406.717 30.1657 406.046 29.9586 405.489 29.5476C404.932 29.1366 404.506 28.5384 404.211 27.7528C403.916 26.9673 403.769 26.0211 403.769 24.9141C403.769 23.8104 403.916 22.8674 404.211 22.0852C404.51 21.303 404.937 20.7064 405.494 20.2955C406.054 19.8845 406.724 19.679 407.503 19.679C408.282 19.679 408.949 19.8861 409.506 20.3004C410.063 20.7114 410.489 21.308 410.784 22.0902C411.082 22.8691 411.231 23.8104 411.231 24.9141C411.231 26.0244 411.084 26.9723 410.789 27.7578C410.494 28.54 410.068 29.1383 409.511 29.5526C408.954 29.9635 408.285 30.169 407.503 30.169ZM407.503 28.8416C408.192 28.8416 408.731 28.5052 409.118 27.8324C409.51 27.1596 409.705 26.1868 409.705 24.9141C409.705 24.0689 409.616 23.3546 409.437 22.7713C409.261 22.1847 409.007 21.7405 408.676 21.4389C408.348 21.134 407.957 20.9815 407.503 20.9815C406.817 20.9815 406.278 21.3196 405.887 21.9957C405.496 22.6719 405.299 23.6446 405.295 24.9141C405.295 25.7625 405.383 26.4801 405.559 27.0668C405.738 27.6501 405.991 28.0926 406.319 28.3942C406.648 28.6925 407.042 28.8416 407.503 28.8416ZM412.995 30V28.8864L416.44 25.3168C416.808 24.929 417.112 24.5893 417.35 24.2976C417.592 24.0026 417.773 23.7225 417.892 23.4574C418.011 23.1922 418.071 22.9105 418.071 22.6122C418.071 22.2741 417.991 21.9825 417.832 21.7372C417.673 21.4886 417.456 21.2981 417.181 21.1655C416.906 21.0296 416.596 20.9616 416.251 20.9616C415.887 20.9616 415.569 21.0362 415.297 21.1854C415.025 21.3345 414.816 21.545 414.67 21.8168C414.525 22.0885 414.452 22.4067 414.452 22.7713H412.985C412.985 22.1515 413.128 21.6096 413.413 21.1456C413.698 20.6816 414.089 20.322 414.586 20.0668C415.083 19.8082 415.648 19.679 416.281 19.679C416.921 19.679 417.484 19.8066 417.972 20.0618C418.462 20.3137 418.845 20.6584 419.12 21.0959C419.395 21.5301 419.533 22.0206 419.533 22.5675C419.533 22.9453 419.461 23.3149 419.319 23.6761C419.18 24.0374 418.936 24.4401 418.588 24.8842C418.24 25.325 417.756 25.8603 417.136 26.4901L415.113 28.608V28.6825H419.697V30H412.995ZM425.126 30.169C424.34 30.1657 423.669 29.9586 423.112 29.5476C422.555 29.1366 422.129 28.5384 421.835 27.7528C421.54 26.9673 421.392 26.0211 421.392 24.9141C421.392 23.8104 421.54 22.8674 421.835 22.0852C422.133 21.303 422.56 20.7064 423.117 20.2955C423.677 19.8845 424.347 19.679 425.126 19.679C425.905 19.679 426.572 19.8861 427.129 20.3004C427.686 20.7114 428.112 21.308 428.407 22.0902C428.705 22.8691 428.854 23.8104 428.854 24.9141C428.854 26.0244 428.707 26.9723 428.412 27.7578C428.117 28.54 427.691 29.1383 427.134 29.5526C426.577 29.9635 425.908 30.169 425.126 30.169ZM425.126 28.8416C425.815 28.8416 426.354 28.5052 426.741 27.8324C427.133 27.1596 427.328 26.1868 427.328 24.9141C427.328 24.0689 427.239 23.3546 427.06 22.7713C426.884 22.1847 426.63 21.7405 426.299 21.4389C425.971 21.134 425.58 20.9815 425.126 20.9815C424.44 20.9815 423.901 21.3196 423.51 21.9957C423.119 22.6719 422.922 23.6446 422.918 24.9141C422.918 25.7625 423.006 26.4801 423.182 27.0668C423.361 27.6501 423.614 28.0926 423.942 28.3942C424.271 28.6925 424.665 28.8416 425.126 28.8416Z" fill="black"/>
<path d="M96.4208 30V28.8864L99.8661 25.3168C100.234 24.929 100.537 24.5893 100.776 24.2976C101.018 24.0026 101.199 23.7225 101.318 23.4574C101.437 23.1922 101.497 22.9105 101.497 22.6122C101.497 22.2741 101.417 21.9825 101.258 21.7372C101.099 21.4886 100.882 21.2981 100.607 21.1655C100.332 21.0296 100.022 20.9616 99.6772 20.9616C99.3126 20.9616 98.9944 21.0362 98.7227 21.1854C98.4509 21.3345 98.2421 21.545 98.0962 21.8168C97.9504 22.0885 97.8775 22.4067 97.8775 22.7713H96.4109C96.4109 22.1515 96.5534 21.6096 96.8384 21.1456C97.1235 20.6816 97.5146 20.322 98.0117 20.0668C98.5089 19.8082 99.074 19.679 99.707 19.679C100.347 19.679 100.91 19.8066 101.397 20.0618C101.888 20.3137 102.271 20.6584 102.546 21.0959C102.821 21.5301 102.958 22.0206 102.958 22.5675C102.958 22.9453 102.887 23.3149 102.745 23.6761C102.605 24.0374 102.362 24.4401 102.014 24.8842C101.666 25.325 101.182 25.8603 100.562 26.4901L98.5387 28.608V28.6825H103.123V30H96.4208ZM108.551 30.169C107.766 30.1657 107.095 29.9586 106.538 29.5476C105.981 29.1366 105.555 28.5384 105.26 27.7528C104.965 26.9673 104.818 26.0211 104.818 24.9141C104.818 23.8104 104.965 22.8674 105.26 22.0852C105.559 21.303 105.986 20.7064 106.543 20.2955C107.103 19.8845 107.773 19.679 108.551 19.679C109.33 19.679 109.998 19.8861 110.555 20.3004C111.112 20.7114 111.538 21.308 111.833 22.0902C112.131 22.8691 112.28 23.8104 112.28 24.9141C112.28 26.0244 112.133 26.9723 111.838 27.7578C111.543 28.54 111.117 29.1383 110.56 29.5526C110.003 29.9635 109.334 30.169 108.551 30.169ZM108.551 28.8416C109.241 28.8416 109.779 28.5052 110.167 27.8324C110.558 27.1596 110.754 26.1868 110.754 24.9141C110.754 24.0689 110.664 23.3546 110.485 22.7713C110.31 22.1847 110.056 21.7405 109.725 21.4389C109.397 21.134 109.006 20.9815 108.551 20.9815C107.865 20.9815 107.327 21.3196 106.936 21.9957C106.545 22.6719 106.347 23.6446 106.344 24.9141C106.344 25.7625 106.432 26.4801 106.608 27.0668C106.787 27.6501 107.04 28.0926 107.368 28.3942C107.696 28.6925 108.091 28.8416 108.551 28.8416ZM117.907 19.8182V30H116.366V21.3594H116.306L113.87 22.9503V21.4787L116.41 19.8182H117.907ZM124.101 30.1392C123.389 30.1392 122.759 30.0166 122.212 29.7713C121.669 29.526 121.243 29.188 120.934 28.7571C120.626 28.3262 120.474 27.8357 120.477 27.2855C120.474 26.8546 120.562 26.4586 120.741 26.0973C120.923 25.7327 121.17 25.4295 121.481 25.1875C121.793 24.9422 122.141 24.7865 122.525 24.7202V24.6605C122.018 24.5379 121.612 24.2661 121.307 23.8452C121.002 23.4242 120.852 22.9403 120.855 22.3935C120.852 21.8731 120.989 21.4091 121.268 21.0014C121.549 20.5904 121.935 20.2673 122.426 20.032C122.916 19.7966 123.475 19.679 124.101 19.679C124.721 19.679 125.275 19.7983 125.762 20.0369C126.252 20.2723 126.639 20.5954 126.92 21.0064C127.202 21.4141 127.345 21.8764 127.348 22.3935C127.345 22.9403 127.189 23.4242 126.881 23.8452C126.572 24.2661 126.171 24.5379 125.677 24.6605V24.7202C126.059 24.7865 126.402 24.9422 126.706 25.1875C127.015 25.4295 127.26 25.7327 127.442 26.0973C127.628 26.4586 127.722 26.8546 127.726 27.2855C127.722 27.8357 127.567 28.3262 127.258 28.7571C126.95 29.188 126.523 29.526 125.976 29.7713C125.432 30.0166 124.807 30.1392 124.101 30.1392ZM124.101 28.8814C124.522 28.8814 124.887 28.8118 125.195 28.6726C125.503 28.5301 125.742 28.3329 125.911 28.081C126.08 27.8258 126.166 27.5275 126.17 27.1861C126.166 26.8314 126.073 26.5182 125.891 26.2464C125.712 25.9747 125.469 25.7609 125.16 25.6051C124.852 25.4493 124.499 25.3714 124.101 25.3714C123.7 25.3714 123.344 25.4493 123.032 25.6051C122.721 25.7609 122.476 25.9747 122.297 26.2464C122.118 26.5182 122.03 26.8314 122.033 27.1861C122.03 27.5275 122.111 27.8258 122.277 28.081C122.446 28.3329 122.686 28.5301 122.998 28.6726C123.309 28.8118 123.677 28.8814 124.101 28.8814ZM124.101 24.1435C124.439 24.1435 124.739 24.0755 125.001 23.9396C125.263 23.8037 125.469 23.6148 125.618 23.3729C125.77 23.1309 125.848 22.8475 125.851 22.5227C125.848 22.2045 125.772 21.9261 125.623 21.6875C125.477 21.4489 125.273 21.2649 125.011 21.1357C124.749 21.0031 124.446 20.9368 124.101 20.9368C123.75 20.9368 123.442 21.0031 123.177 21.1357C122.915 21.2649 122.711 21.4489 122.565 21.6875C122.419 21.9261 122.348 22.2045 122.351 22.5227C122.348 22.8475 122.421 23.1309 122.57 23.3729C122.719 23.6148 122.925 23.8037 123.187 23.9396C123.452 24.0755 123.757 24.1435 124.101 24.1435ZM137.731 24.2628V25.5554H133.217V24.2628H137.731ZM143.397 30V28.8864L146.843 25.3168C147.211 24.929 147.514 24.5893 147.752 24.2976C147.994 24.0026 148.175 23.7225 148.294 23.4574C148.414 23.1922 148.473 22.9105 148.473 22.6122C148.473 22.2741 148.394 21.9825 148.235 21.7372C148.076 21.4886 147.859 21.2981 147.583 21.1655C147.308 21.0296 146.998 20.9616 146.654 20.9616C146.289 20.9616 145.971 21.0362 145.699 21.1854C145.427 21.3345 145.219 21.545 145.073 21.8168C144.927 22.0885 144.854 22.4067 144.854 22.7713H143.387C143.387 22.1515 143.53 21.6096 143.815 21.1456C144.1 20.6816 144.491 20.322 144.988 20.0668C145.485 19.8082 146.051 19.679 146.684 19.679C147.323 19.679 147.887 19.8066 148.374 20.0618C148.864 20.3137 149.247 20.6584 149.522 21.0959C149.797 21.5301 149.935 22.0206 149.935 22.5675C149.935 22.9453 149.864 23.3149 149.721 23.6761C149.582 24.0374 149.338 24.4401 148.99 24.8842C148.642 25.325 148.158 25.8603 147.539 26.4901L145.515 28.608V28.6825H150.099V30H143.397ZM155.528 30.169C154.743 30.1657 154.071 29.9586 153.515 29.5476C152.958 29.1366 152.532 28.5384 152.237 27.7528C151.942 26.9673 151.794 26.0211 151.794 24.9141C151.794 23.8104 151.942 22.8674 152.237 22.0852C152.535 21.303 152.963 20.7064 153.52 20.2955C154.08 19.8845 154.749 19.679 155.528 19.679C156.307 19.679 156.975 19.8861 157.532 20.3004C158.088 20.7114 158.514 21.308 158.809 22.0902C159.108 22.8691 159.257 23.8104 159.257 24.9141C159.257 26.0244 159.109 26.9723 158.814 27.7578C158.519 28.54 158.093 29.1383 157.537 29.5526C156.98 29.9635 156.31 30.169 155.528 30.169ZM155.528 28.8416C156.217 28.8416 156.756 28.5052 157.144 27.8324C157.535 27.1596 157.73 26.1868 157.73 24.9141C157.73 24.0689 157.641 23.3546 157.462 22.7713C157.286 22.1847 157.033 21.7405 156.701 21.4389C156.373 21.134 155.982 20.9815 155.528 20.9815C154.842 20.9815 154.303 21.3196 153.912 21.9957C153.521 22.6719 153.324 23.6446 153.321 24.9141C153.321 25.7625 153.408 26.4801 153.584 27.0668C153.763 27.6501 154.017 28.0926 154.345 28.3942C154.673 28.6925 155.067 28.8416 155.528 28.8416ZM164.883 19.8182V30H163.342V21.3594H163.282L160.846 22.9503V21.4787L163.387 19.8182H164.883ZM171.023 19.679C171.477 19.6823 171.925 19.7652 172.366 19.9276C172.806 20.09 173.204 20.3551 173.559 20.723C173.917 21.0909 174.202 21.5881 174.414 22.2145C174.629 22.8376 174.739 23.6132 174.742 24.5412C174.742 25.4328 174.653 26.2266 174.474 26.9226C174.295 27.6153 174.038 28.2003 173.703 28.6776C173.372 29.1548 172.969 29.5178 172.495 29.7663C172.021 30.0149 171.487 30.1392 170.894 30.1392C170.287 30.1392 169.749 30.0199 169.278 29.7812C168.808 29.5426 168.425 29.2128 168.13 28.7919C167.835 28.3677 167.651 27.8804 167.578 27.3303H169.094C169.194 27.7678 169.396 28.1224 169.701 28.3942C170.009 28.6626 170.407 28.7969 170.894 28.7969C171.64 28.7969 172.221 28.4721 172.639 27.8224C173.057 27.1695 173.267 26.258 173.27 25.0881H173.191C173.019 25.3731 172.803 25.6184 172.545 25.8239C172.289 26.0294 172.003 26.1884 171.684 26.3011C171.366 26.4138 171.027 26.4702 170.665 26.4702C170.079 26.4702 169.545 26.326 169.064 26.0376C168.584 25.7493 168.201 25.3532 167.916 24.8494C167.631 24.3456 167.488 23.7706 167.488 23.1243C167.488 22.4813 167.634 21.898 167.926 21.3743C168.221 20.8506 168.632 20.4363 169.159 20.1314C169.689 19.8232 170.311 19.6723 171.023 19.679ZM171.028 20.9716C170.64 20.9716 170.291 21.0677 169.979 21.2599C169.671 21.4489 169.427 21.7057 169.248 22.0305C169.069 22.352 168.98 22.71 168.98 23.1044C168.98 23.4988 169.066 23.8568 169.238 24.1783C169.414 24.4964 169.653 24.75 169.954 24.9389C170.259 25.1245 170.607 25.2173 170.998 25.2173C171.29 25.2173 171.562 25.161 171.814 25.0483C172.066 24.9356 172.286 24.7798 172.475 24.581C172.664 24.3788 172.811 24.1501 172.917 23.8949C173.023 23.6397 173.077 23.3712 173.077 23.0895C173.077 22.715 172.987 22.367 172.808 22.0455C172.632 21.724 172.39 21.4654 172.082 21.2699C171.774 21.071 171.423 20.9716 171.028 20.9716Z" fill="black"/>
<g filter="url(#filter0_d_2_61)">
<path d="M764.707 82.7057C765.097 82.3144 765.096 81.6812 764.704 81.2915L758.328 74.9402C757.936 74.5504 757.303 74.5517 756.913 74.943C756.524 75.3343 756.525 75.9674 756.916 76.3572L762.584 82.0028L756.939 87.6709C756.549 88.0622 756.55 88.6953 756.941 89.0851C757.333 89.4748 757.966 89.4736 758.356 89.0823L764.707 82.7057ZM30.8289 84.4545L31.8289 84.4525L31.8249 82.4526L30.8249 82.4545L30.8289 84.4545ZM54.8633 82.4068L53.8633 82.4088L53.8673 84.4088L54.8673 84.4068L54.8633 82.4068ZM88.5211 84.3401L89.5211 84.3381L89.5171 82.3381L88.5171 82.3401L88.5211 84.3401ZM112.556 82.2924L111.556 82.2944L111.559 84.2944L112.559 84.2924L112.556 82.2924ZM146.213 84.2256L147.213 84.2236L147.209 82.2236L146.209 82.2256L146.213 84.2256ZM170.248 82.1779L169.248 82.1799L169.252 84.1799L170.252 84.1779L170.248 82.1779ZM203.905 84.1112L204.905 84.1092L204.902 82.1092L203.902 82.1112L203.905 84.1112ZM227.94 82.0635L226.94 82.0655L226.944 84.0655L227.944 84.0635L227.94 82.0635ZM261.598 83.9967L262.598 83.9947L262.594 81.9947L261.594 81.9967L261.598 83.9967ZM285.632 81.949L284.632 81.951L284.636 83.951L285.636 83.949L285.632 81.949ZM319.29 83.8822L320.29 83.8803L320.286 81.8803L319.286 81.8823L319.29 83.8822ZM343.324 81.8346L342.324 81.8365L342.328 83.8365L343.328 83.8346L343.324 81.8346ZM376.982 83.7678L377.982 83.7658L377.978 81.7658L376.978 81.7678L376.982 83.7678ZM401.017 81.7201L400.017 81.7221L400.02 83.7221L401.02 83.7201L401.017 81.7201ZM434.674 83.6533L435.674 83.6514L435.67 81.6514L434.67 81.6533L434.674 83.6533ZM458.709 81.6056L457.709 81.6076L457.713 83.6076L458.713 83.6056L458.709 81.6056ZM492.366 83.5389L493.366 83.5369L493.362 81.5369L492.362 81.5389L492.366 83.5389ZM516.401 81.4912L515.401 81.4932L515.405 83.4932L516.405 83.4912L516.401 81.4912ZM550.059 83.4244L551.059 83.4224L551.055 81.4224L550.055 81.4244L550.059 83.4244ZM574.093 81.3767L573.093 81.3787L573.097 83.3787L574.097 83.3767L574.093 81.3767ZM607.751 83.31L608.751 83.308L608.747 81.308L607.747 81.31L607.751 83.31ZM631.785 81.2623L630.785 81.2643L630.789 83.2643L631.789 83.2623L631.785 81.2623ZM665.443 83.1955L666.443 83.1935L666.439 81.1935L665.439 81.1955L665.443 83.1955ZM689.477 81.1478L688.477 81.1498L688.481 83.1498L689.481 83.1478L689.477 81.1478ZM723.135 83.0811L724.135 83.0791L724.131 81.0791L723.131 81.0811L723.135 83.0811ZM747.17 81.0334L746.17 81.0354L746.174 83.0353L747.174 83.0334L747.17 81.0334ZM14.002 84.4879L30.8289 84.4545L30.8249 82.4545L13.998 82.4879L14.002 84.4879ZM54.8673 84.4068L88.5211 84.3401L88.5171 82.3401L54.8633 82.4068L54.8673 84.4068ZM112.559 84.2924L146.213 84.2256L146.209 82.2256L112.556 82.2924L112.559 84.2924ZM170.252 84.1779L203.905 84.1112L203.902 82.1112L170.248 82.1779L170.252 84.1779ZM227.944 84.0635L261.598 83.9967L261.594 81.9967L227.94 82.0635L227.944 84.0635ZM285.636 83.949L319.29 83.8822L319.286 81.8823L285.632 81.949L285.636 83.949ZM343.328 83.8346L376.982 83.7678L376.978 81.7678L343.324 81.8346L343.328 83.8346ZM401.02 83.7201L434.674 83.6533L434.67 81.6533L401.017 81.7201L401.02 83.7201ZM458.713 83.6056L492.366 83.5389L492.362 81.5389L458.709 81.6056L458.713 83.6056ZM516.405 83.4912L550.059 83.4244L550.055 81.4244L516.401 81.4912L516.405 83.4912ZM574.097 83.3767L607.751 83.31L607.747 81.31L574.093 81.3767L574.097 83.3767ZM631.789 83.2623L665.443 83.1955L665.439 81.1955L631.785 81.2623L631.789 83.2623ZM689.481 83.1478L723.135 83.0811L723.131 81.0811L689.477 81.1478L689.481 83.1478ZM747.174 83.0334L764.001 83L763.997 81L747.17 81.0334L747.174 83.0334ZM765.416 83.4114C766.195 82.6288 766.193 81.3625 765.41 80.583L752.657 67.8803C751.874 67.1008 750.608 67.1033 749.828 67.8859C749.049 68.6685 749.051 69.9349 749.834 70.7144L761.17 82.0056L749.879 93.3417C749.099 94.1243 749.102 95.3907 749.884 96.1701C750.667 96.9496 751.933 96.9471 752.713 96.1645L765.416 83.4114ZM30.8309 85.4545L32.8309 85.4506L32.8229 81.4506L30.8229 81.4545L30.8309 85.4545ZM54.8613 81.4068L52.8613 81.4108L52.8693 85.4108L54.8693 85.4068L54.8613 81.4068ZM88.5231 85.3401L90.523 85.3361L90.5151 81.3361L88.5151 81.3401L88.5231 85.3401ZM112.554 81.2924L110.554 81.2964L110.561 85.2963L112.561 85.2924L112.554 81.2924ZM146.215 85.2256L148.215 85.2216L148.207 81.2217L146.207 81.2256L146.215 85.2256ZM170.246 81.1779L168.246 81.1819L168.254 85.1819L170.254 85.1779L170.246 81.1779ZM203.907 85.1112L205.907 85.1072L205.9 81.1072L203.9 81.1112L203.907 85.1112ZM227.938 81.0635L225.938 81.0674L225.946 85.0674L227.946 85.0635L227.938 81.0635ZM261.6 84.9967L263.6 84.9927L263.592 80.9927L261.592 80.9967L261.6 84.9967ZM285.63 80.949L283.63 80.953L283.638 84.953L285.638 84.949L285.63 80.949ZM319.292 84.8822L321.292 84.8783L321.284 80.8783L319.284 80.8823L319.292 84.8822ZM343.322 80.8346L341.322 80.8385L341.33 84.8385L343.33 84.8346L343.322 80.8346ZM376.984 84.7678L378.984 84.7638L378.976 80.7638L376.976 80.7678L376.984 84.7678ZM401.015 80.7201L399.015 80.7241L399.022 84.7241L401.022 84.7201L401.015 80.7201ZM434.676 84.6533L436.676 84.6494L436.668 80.6494L434.668 80.6533L434.676 84.6533ZM458.707 80.6057L456.707 80.6096L456.715 84.6096L458.715 84.6056L458.707 80.6057ZM492.368 84.5389L494.368 84.5349L494.36 80.5349L492.36 80.5389L492.368 84.5389ZM516.399 80.4912L514.399 80.4952L514.407 84.4952L516.407 84.4912L516.399 80.4912ZM550.061 84.4244L552.061 84.4205L552.053 80.4205L550.053 80.4244L550.061 84.4244ZM574.091 80.3767L572.091 80.3807L572.099 84.3807L574.099 84.3767L574.091 80.3767ZM607.753 84.31L609.753 84.306L609.745 80.306L607.745 80.31L607.753 84.31ZM631.783 80.2623L629.783 80.2663L629.791 84.2662L631.791 84.2623L631.783 80.2623ZM665.445 84.1955L667.445 84.1915L667.437 80.1915L665.437 80.1955L665.445 84.1955ZM689.475 80.1478L687.475 80.1518L687.483 84.1518L689.483 84.1478L689.475 80.1478ZM723.137 84.0811L725.137 84.0771L725.129 80.0771L723.129 80.0811L723.137 84.0811ZM747.168 80.0334L745.168 80.0373L745.176 84.0373L747.176 84.0334L747.168 80.0334ZM14.004 85.4879L30.8309 85.4545L30.8229 81.4545L13.996 81.4879L14.004 85.4879ZM54.8693 85.4068L88.5231 85.3401L88.5151 81.3401L54.8613 81.4068L54.8693 85.4068ZM112.561 85.2924L146.215 85.2256L146.207 81.2256L112.554 81.2924L112.561 85.2924ZM170.254 85.1779L203.907 85.1112L203.9 81.1112L170.246 81.1779L170.254 85.1779ZM227.946 85.0635L261.6 84.9967L261.592 80.9967L227.938 81.0635L227.946 85.0635ZM285.638 84.949L319.292 84.8822L319.284 80.8823L285.63 80.949L285.638 84.949ZM343.33 84.8346L376.984 84.7678L376.976 80.7678L343.322 80.8346L343.33 84.8346ZM401.022 84.7201L434.676 84.6533L434.668 80.6533L401.015 80.7201L401.022 84.7201ZM458.715 84.6056L492.368 84.5389L492.36 80.5389L458.707 80.6057L458.715 84.6056ZM516.407 84.4912L550.061 84.4244L550.053 80.4244L516.399 80.4912L516.407 84.4912ZM574.099 84.3767L607.753 84.31L607.745 80.31L574.091 80.3767L574.099 84.3767ZM631.791 84.2623L665.445 84.1955L665.437 80.1955L631.783 80.2623L631.791 84.2623ZM689.483 84.1478L723.137 84.0811L723.129 80.0811L689.475 80.1478L689.483 84.1478ZM747.176 84.0334L764.002 84L763.995 80L747.168 80.0334L747.176 84.0334Z" fill="#4D79CE"/>
</g>
<g filter="url(#filter1_d_2_61)">
<circle cx="643" cy="83" r="50" fill="#C5C5C5"/>
</g>
<path d="M641.053 73.5455V91H638.632L629.76 78.1989H629.598V91H626.964V73.5455H629.402L638.283 86.3636H638.445V73.5455H641.053ZM656.707 79.0597C656.542 78.5426 656.32 78.0795 656.042 77.6705C655.769 77.2557 655.442 76.9034 655.062 76.6136C654.681 76.3182 654.246 76.0937 653.758 75.9403C653.275 75.7869 652.744 75.7102 652.164 75.7102C651.181 75.7102 650.295 75.9631 649.505 76.4688C648.715 76.9744 648.09 77.7159 647.63 78.6932C647.175 79.6648 646.948 80.8551 646.948 82.2642C646.948 83.679 647.178 84.875 647.638 85.8523C648.099 86.8295 648.729 87.571 649.531 88.0767C650.332 88.5824 651.244 88.8352 652.266 88.8352C653.215 88.8352 654.042 88.642 654.746 88.2557C655.457 87.8693 656.005 87.3239 656.391 86.6193C656.783 85.9091 656.979 85.0739 656.979 84.1136L657.661 84.2415H652.667V82.0682H659.528V84.054C659.528 85.5199 659.215 86.7926 658.59 87.8722C657.971 88.946 657.113 89.7756 656.016 90.3608C654.925 90.946 653.675 91.2386 652.266 91.2386C650.687 91.2386 649.3 90.875 648.107 90.1477C646.92 89.4205 645.994 88.3892 645.329 87.054C644.664 85.7131 644.332 84.1222 644.332 82.2812C644.332 80.8892 644.525 79.6392 644.911 78.5312C645.298 77.4233 645.84 76.483 646.539 75.7102C647.244 74.9318 648.07 74.3381 649.019 73.929C649.974 73.5142 651.016 73.3068 652.147 73.3068C653.09 73.3068 653.968 73.446 654.781 73.7244C655.599 74.0028 656.326 74.3977 656.962 74.9091C657.604 75.4205 658.136 76.0284 658.556 76.733C658.977 77.4318 659.261 78.2074 659.408 79.0597H656.707Z" fill="white"/>
<g filter="url(#filter2_d_2_61)">
<circle cx="389" cy="83" r="50" fill="#C5C5C5"/>
</g>
<path d="M365.25 73.5455H368.446L374.002 87.1136H374.207L379.764 73.5455H382.96V91H380.454V78.3693H380.292L375.145 90.9744H373.065L367.917 78.3608H367.755V91H365.25V73.5455ZM386.789 91V73.5455H393.01C394.368 73.5455 395.493 73.7926 396.385 74.2869C397.277 74.7812 397.945 75.4574 398.388 76.3153C398.831 77.1676 399.053 78.1278 399.053 79.196C399.053 80.2699 398.828 81.2358 398.38 82.0938C397.936 82.946 397.266 83.6222 396.368 84.1222C395.476 84.6165 394.354 84.8636 393.002 84.8636H388.723V82.6307H392.763C393.621 82.6307 394.317 82.483 394.851 82.1875C395.385 81.8864 395.777 81.4773 396.027 80.9602C396.277 80.4432 396.402 79.8551 396.402 79.196C396.402 78.5369 396.277 77.9517 396.027 77.4403C395.777 76.929 395.382 76.5284 394.843 76.2386C394.309 75.9489 393.604 75.804 392.729 75.804H389.422V91H386.789ZM411.66 78.1307C411.569 77.3239 411.194 76.6989 410.535 76.2557C409.876 75.8068 409.047 75.5824 408.047 75.5824C407.331 75.5824 406.711 75.696 406.189 75.9233C405.666 76.1449 405.26 76.4517 404.97 76.8438C404.686 77.2301 404.544 77.6705 404.544 78.1648C404.544 78.5795 404.64 78.9375 404.833 79.2386C405.032 79.5398 405.291 79.7926 405.609 79.9972C405.933 80.196 406.279 80.3636 406.649 80.5C407.018 80.6307 407.373 80.7386 407.714 80.8239L409.419 81.267C409.975 81.4034 410.547 81.5881 411.132 81.821C411.717 82.054 412.26 82.3608 412.76 82.7415C413.26 83.1222 413.663 83.5938 413.97 84.1562C414.282 84.7188 414.439 85.392 414.439 86.1761C414.439 87.1648 414.183 88.0426 413.672 88.8097C413.166 89.5767 412.43 90.1818 411.464 90.625C410.504 91.0682 409.342 91.2898 407.978 91.2898C406.672 91.2898 405.541 91.0824 404.586 90.6676C403.632 90.2528 402.885 89.6648 402.345 88.9034C401.805 88.1364 401.507 87.2273 401.45 86.1761H404.092C404.143 86.8068 404.348 87.3324 404.706 87.7528C405.069 88.1676 405.532 88.4773 406.095 88.6818C406.663 88.8807 407.285 88.9801 407.961 88.9801C408.706 88.9801 409.368 88.8636 409.947 88.6307C410.532 88.392 410.993 88.0625 411.328 87.642C411.663 87.2159 411.831 86.7187 411.831 86.1506C411.831 85.6335 411.683 85.2102 411.387 84.8807C411.098 84.5511 410.703 84.2784 410.203 84.0625C409.708 83.8466 409.149 83.6562 408.524 83.4915L406.461 82.929C405.064 82.5483 403.956 81.9886 403.137 81.25C402.325 80.5114 401.919 79.5341 401.919 78.3182C401.919 77.3125 402.191 76.4347 402.737 75.6847C403.282 74.9347 404.021 74.3523 404.953 73.9375C405.885 73.517 406.936 73.3068 408.106 73.3068C409.288 73.3068 410.331 73.5142 411.234 73.929C412.143 74.3438 412.859 74.9148 413.382 75.642C413.904 76.3636 414.177 77.1932 414.2 78.1307H411.66Z" fill="white"/>
<g filter="url(#filter3_d_2_61)">
<circle cx="135" cy="83" r="50" fill="#C5C5C5"/>
</g>
<path d="M123.439 73.5455H126.081V85.0256C126.081 86.2472 125.794 87.3295 125.22 88.2727C124.646 89.2102 123.839 89.9489 122.8 90.4886C121.76 91.0227 120.541 91.2898 119.143 91.2898C117.751 91.2898 116.536 91.0227 115.496 90.4886C114.456 89.9489 113.649 89.2102 113.075 88.2727C112.501 87.3295 112.214 86.2472 112.214 85.0256V73.5455H114.848V84.8125C114.848 85.6023 115.021 86.304 115.368 86.9176C115.72 87.5312 116.217 88.0142 116.859 88.3665C117.501 88.7131 118.263 88.8864 119.143 88.8864C120.03 88.8864 120.794 88.7131 121.436 88.3665C122.084 88.0142 122.578 87.5312 122.919 86.9176C123.266 86.304 123.439 85.6023 123.439 84.8125V73.5455ZM144.407 79.2216H141.748C141.646 78.6534 141.455 78.1534 141.177 77.7216C140.898 77.2898 140.558 76.9233 140.154 76.6222C139.751 76.321 139.299 76.0937 138.799 75.9403C138.305 75.7869 137.779 75.7102 137.222 75.7102C136.217 75.7102 135.316 75.9631 134.521 76.4688C133.731 76.9744 133.106 77.7159 132.646 78.6932C132.191 79.6705 131.964 80.8636 131.964 82.2727C131.964 83.6932 132.191 84.892 132.646 85.8693C133.106 86.8466 133.734 87.5852 134.529 88.0852C135.325 88.5852 136.219 88.8352 137.214 88.8352C137.765 88.8352 138.288 88.7614 138.782 88.6136C139.282 88.4602 139.734 88.2358 140.137 87.9403C140.54 87.6449 140.881 87.2841 141.16 86.858C141.444 86.4261 141.64 85.9318 141.748 85.375L144.407 85.3835C144.265 86.2415 143.989 87.0312 143.58 87.7528C143.177 88.4688 142.657 89.0881 142.021 89.6108C141.39 90.1278 140.668 90.5284 139.856 90.8125C139.043 91.0966 138.157 91.2386 137.197 91.2386C135.685 91.2386 134.339 90.8807 133.157 90.1648C131.975 89.4432 131.043 88.4119 130.362 87.071C129.685 85.7301 129.347 84.1307 129.347 82.2727C129.347 80.4091 129.688 78.8097 130.37 77.4744C131.052 76.1335 131.984 75.1051 133.165 74.3892C134.347 73.6676 135.691 73.3068 137.197 73.3068C138.123 73.3068 138.987 73.4403 139.788 73.7074C140.594 73.9687 141.319 74.3551 141.961 74.8665C142.603 75.3722 143.134 75.9915 143.555 76.7244C143.975 77.4517 144.259 78.2841 144.407 79.2216ZM147.558 91V73.5455H158.382V75.8125H150.192V81.1307H157.607V83.3892H150.192V91H147.558Z" fill="white"/>
<defs>
<filter id="filter0_d_2_61" x="9.99603" y="67.2973" width="760.003" height="37.4558" filterUnits="userSpaceOnUse" color-interpolation-filters="sRGB">
<feFlood flood-opacity="0" result="BackgroundImageFix"/>
<feColorMatrix in="SourceAlpha" type="matrix" values="0 0 0 0 0 0 0 0 0 0 0 0 0 0 0 0 0 0 127 0" result="hardAlpha"/>
<feOffset dy="4"/>
<feGaussianBlur stdDeviation="2"/>
<feComposite in2="hardAlpha" operator="out"/>
<feColorMatrix type="matrix" values="0 0 0 0 0 0 0 0 0 0 0 0 0 0 0 0 0 0 0.25 0"/>
<feBlend mode="normal" in2="BackgroundImageFix" result="effect1_dropShadow_2_61"/>
<feBlend mode="normal" in="SourceGraphic" in2="effect1_dropShadow_2_61" result="shape"/>
</filter>
<filter id="filter1_d_2_61" x="589" y="33" width="108" height="108" filterUnits="userSpaceOnUse" color-interpolation-filters="sRGB">
<feFlood flood-opacity="0" result="BackgroundImageFix"/>
<feColorMatrix in="SourceAlpha" type="matrix" values="0 0 0 0 0 0 0 0 0 0 0 0 0 0 0 0 0 0 127 0" result="hardAlpha"/>
<feOffset dy="4"/>
<feGaussianBlur stdDeviation="2"/>
<feComposite in2="hardAlpha" operator="out"/>
<feColorMatrix type="matrix" values="0 0 0 0 0 0 0 0 0 0 0 0 0 0 0 0 0 0 0.25 0"/>
<feBlend mode="normal" in2="BackgroundImageFix" result="effect1_dropShadow_2_61"/>
<feBlend mode="normal" in="SourceGraphic" in2="effect1_dropShadow_2_61" result="shape"/>
</filter>
<filter id="filter2_d_2_61" x="335" y="33" width="108" height="108" filterUnits="userSpaceOnUse" color-interpolation-filters="sRGB">
<feFlood flood-opacity="0" result="BackgroundImageFix"/>
<feColorMatrix in="SourceAlpha" type="matrix" values="0 0 0 0 0 0 0 0 0 0 0 0 0 0 0 0 0 0 127 0" result="hardAlpha"/>
<feOffset dy="4"/>
<feGaussianBlur stdDeviation="2"/>
<feComposite in2="hardAlpha" operator="out"/>
<feColorMatrix type="matrix" values="0 0 0 0 0 0 0 0 0 0 0 0 0 0 0 0 0 0 0.25 0"/>
<feBlend mode="normal" in2="BackgroundImageFix" result="effect1_dropShadow_2_61"/>
<feBlend mode="normal" in="SourceGraphic" in2="effect1_dropShadow_2_61" result="shape"/>
</filter>
<filter id="filter3_d_2_61" x="81" y="33" width="108" height="108" filterUnits="userSpaceOnUse" color-interpolation-filters="sRGB">
<feFlood flood-opacity="0" result="BackgroundImageFix"/>
<feColorMatrix in="SourceAlpha" type="matrix" values="0 0 0 0 0 0 0 0 0 0 0 0 0 0 0 0 0 0 127 0" result="hardAlpha"/>
<feOffset dy="4"/>
<feGaussianBlur stdDeviation="2"/>
<feComposite in2="hardAlpha" operator="out"/>
<feColorMatrix type="matrix" values="0 0 0 0 0 0 0 0 0 0 0 0 0 0 0 0 0 0 0.25 0"/>
<feBlend mode="normal" in2="BackgroundImageFix" result="effect1_dropShadow_2_61"/>
<feBlend mode="normal" in="SourceGraphic" in2="effect1_dropShadow_2_61" result="shape"/>
</filter>
</defs>
</svg>
