<svg width="1656" height="349" viewBox="0 0 1656 349" fill="none" xmlns="http://www.w3.org/2000/svg">
<rect x="0.378052" width="1655.62" height="349" fill="white"/>
<path d="M1298.29 61.0488V59.1397L1304.2 53.0204C1304.83 52.3556 1305.35 51.7732 1305.76 51.2732C1306.17 50.7675 1306.48 50.2874 1306.68 49.8329C1306.89 49.3783 1306.99 48.8954 1306.99 48.384C1306.99 47.8044 1306.85 47.3044 1306.58 46.884C1306.31 46.4579 1305.94 46.1312 1305.47 45.9039C1304.99 45.6709 1304.46 45.5544 1303.87 45.5544C1303.25 45.5544 1302.7 45.6823 1302.24 45.938C1301.77 46.1937 1301.41 46.5544 1301.16 47.0204C1300.91 47.4863 1300.79 48.0317 1300.79 48.6567H1298.27C1298.27 47.5942 1298.52 46.6652 1299.01 45.8698C1299.49 45.0743 1300.16 44.4579 1301.02 44.0204C1301.87 43.5772 1302.84 43.3556 1303.92 43.3556C1305.02 43.3556 1305.99 43.5743 1306.82 44.0118C1307.66 44.4437 1308.32 45.0346 1308.79 45.7846C1309.26 46.5289 1309.5 47.3698 1309.5 48.3073C1309.5 48.955 1309.37 49.5885 1309.13 50.2079C1308.89 50.8272 1308.47 51.5175 1307.88 52.2789C1307.28 53.0346 1306.45 53.9522 1305.39 55.0317L1301.92 58.6624V58.7902H1309.78V61.0488H1298.29ZM1319.08 61.3385C1317.74 61.3329 1316.59 60.9777 1315.63 60.2732C1314.68 59.5687 1313.95 58.5431 1313.44 57.1965C1312.94 55.8499 1312.68 54.2277 1312.68 52.33C1312.68 50.438 1312.94 48.8215 1313.44 47.4806C1313.95 46.1397 1314.69 45.1169 1315.64 44.4124C1316.6 43.7079 1317.75 43.3556 1319.08 43.3556C1320.42 43.3556 1321.56 43.7107 1322.52 44.4209C1323.47 45.1255 1324.2 46.1482 1324.71 47.4891C1325.22 48.8243 1325.48 50.438 1325.48 52.33C1325.48 54.2334 1325.22 55.8584 1324.72 57.205C1324.21 58.5459 1323.48 59.5715 1322.53 60.2817C1321.57 60.9863 1320.43 61.3385 1319.08 61.3385ZM1319.08 59.063C1320.27 59.063 1321.19 58.4863 1321.85 57.3329C1322.53 56.1794 1322.86 54.5118 1322.86 52.33C1322.86 50.8812 1322.71 49.6567 1322.4 48.6567C1322.1 47.651 1321.66 46.8897 1321.1 46.3726C1320.53 45.8499 1319.86 45.5885 1319.08 45.5885C1317.91 45.5885 1316.99 46.1681 1316.31 47.3272C1315.64 48.4863 1315.31 50.1539 1315.3 52.33C1315.3 53.7846 1315.45 55.0147 1315.75 56.0204C1316.06 57.0204 1316.49 57.7789 1317.06 58.2959C1317.62 58.8073 1318.3 59.063 1319.08 59.063ZM1328.5 61.0488V59.1397L1334.41 53.0204C1335.04 52.3556 1335.56 51.7732 1335.97 51.2732C1336.38 50.7675 1336.69 50.2874 1336.9 49.8329C1337.1 49.3783 1337.2 48.8954 1337.2 48.384C1337.2 47.8044 1337.07 47.3044 1336.79 46.884C1336.52 46.4579 1336.15 46.1312 1335.68 45.9039C1335.2 45.6709 1334.67 45.5544 1334.08 45.5544C1333.46 45.5544 1332.91 45.6823 1332.45 45.938C1331.98 46.1937 1331.62 46.5544 1331.37 47.0204C1331.12 47.4863 1331 48.0317 1331 48.6567H1328.48C1328.48 47.5942 1328.73 46.6652 1329.22 45.8698C1329.7 45.0743 1330.38 44.4579 1331.23 44.0204C1332.08 43.5772 1333.05 43.3556 1334.13 43.3556C1335.23 43.3556 1336.2 43.5743 1337.03 44.0118C1337.87 44.4437 1338.53 45.0346 1339 45.7846C1339.47 46.5289 1339.71 47.3698 1339.71 48.3073C1339.71 48.955 1339.59 49.5885 1339.34 50.2079C1339.1 50.8272 1338.68 51.5175 1338.09 52.2789C1337.49 53.0346 1336.66 53.9522 1335.6 55.0317L1332.13 58.6624V58.7902H1339.99V61.0488H1328.5ZM1349.3 61.3385C1347.95 61.3329 1346.8 60.9777 1345.84 60.2732C1344.89 59.5687 1344.16 58.5431 1343.65 57.1965C1343.15 55.8499 1342.9 54.2277 1342.9 52.33C1342.9 50.438 1343.15 48.8215 1343.65 47.4806C1344.17 46.1397 1344.9 45.1169 1345.85 44.4124C1346.81 43.7079 1347.96 43.3556 1349.3 43.3556C1350.63 43.3556 1351.78 43.7107 1352.73 44.4209C1353.68 45.1255 1354.42 46.1482 1354.92 47.4891C1355.43 48.8243 1355.69 50.438 1355.69 52.33C1355.69 54.2334 1355.43 55.8584 1354.93 57.205C1354.42 58.5459 1353.69 59.5715 1352.74 60.2817C1351.78 60.9863 1350.64 61.3385 1349.3 61.3385ZM1349.3 59.063C1350.48 59.063 1351.4 58.4863 1352.07 57.3329C1352.74 56.1794 1353.07 54.5118 1353.07 52.33C1353.07 50.8812 1352.92 49.6567 1352.61 48.6567C1352.31 47.651 1351.88 46.8897 1351.31 46.3726C1350.74 45.8499 1350.07 45.5885 1349.3 45.5885C1348.12 45.5885 1347.2 46.1681 1346.53 47.3272C1345.86 48.4863 1345.52 50.1539 1345.51 52.33C1345.51 53.7846 1345.66 55.0147 1345.96 56.0204C1346.27 57.0204 1346.7 57.7789 1347.27 58.2959C1347.83 58.8073 1348.51 59.063 1349.3 59.063ZM1372.81 51.2135V53.4294H1365.07V51.2135H1372.81ZM1382.76 61.0488V43.5942H1388.98C1390.34 43.5942 1391.47 43.8414 1392.36 44.3357C1393.25 44.83 1393.92 45.5062 1394.36 46.3641C1394.81 47.2164 1395.03 48.1766 1395.03 49.2448C1395.03 50.3187 1394.8 51.2846 1394.35 52.1425C1393.91 52.9948 1393.24 53.6709 1392.34 54.1709C1391.45 54.6652 1390.33 54.9124 1388.98 54.9124H1384.7V52.6794H1388.74C1389.59 52.6794 1390.29 52.5317 1390.82 52.2363C1391.36 51.9351 1391.75 51.526 1392 51.009C1392.25 50.4919 1392.38 49.9039 1392.38 49.2448C1392.38 48.5857 1392.25 48.0005 1392 47.4891C1391.75 46.9777 1391.36 46.5772 1390.82 46.2874C1390.28 45.9976 1389.58 45.8527 1388.7 45.8527H1385.4V61.0488H1382.76ZM1397.91 61.0488V47.9579H1400.37V50.0374H1400.51C1400.75 49.3329 1401.17 48.7789 1401.77 48.3755C1402.38 47.9664 1403.07 47.7618 1403.83 47.7618C1403.99 47.7618 1404.18 47.7675 1404.4 47.7789C1404.62 47.7902 1404.79 47.8044 1404.92 47.8215V50.259C1404.81 50.2306 1404.63 50.1993 1404.37 50.1652C1404.11 50.1255 1403.85 50.1056 1403.59 50.1056C1402.98 50.1056 1402.45 50.2334 1401.97 50.4891C1401.51 50.7391 1401.14 51.0885 1400.87 51.5374C1400.59 51.9806 1400.46 52.4863 1400.46 53.0544V61.0488H1397.91ZM1412.29 61.313C1411 61.313 1409.89 61.0374 1408.96 60.4863C1408.04 59.9294 1407.32 59.1482 1406.81 58.1425C1406.31 57.1312 1406.06 55.9465 1406.06 54.5885C1406.06 53.2476 1406.31 52.0658 1406.81 51.0431C1407.32 50.0204 1408.02 49.2221 1408.93 48.6482C1409.84 48.0743 1410.9 47.7874 1412.11 47.7874C1412.85 47.7874 1413.57 47.9096 1414.26 48.1539C1414.96 48.3982 1415.58 48.7817 1416.13 49.3044C1416.68 49.8272 1417.11 50.5062 1417.43 51.3414C1417.75 52.1709 1417.91 53.1794 1417.91 54.3669V55.2704H1407.5V53.3613H1415.41C1415.41 52.6908 1415.28 52.0971 1415 51.58C1414.73 51.0573 1414.35 50.6454 1413.85 50.3442C1413.36 50.0431 1412.79 49.8925 1412.13 49.8925C1411.42 49.8925 1410.79 50.0687 1410.26 50.4209C1409.73 50.7675 1409.32 51.2221 1409.03 51.7846C1408.75 52.3414 1408.6 52.9465 1408.6 53.5999V55.0914C1408.6 55.9664 1408.76 56.7107 1409.06 57.3243C1409.38 57.938 1409.81 58.4067 1410.37 58.7306C1410.92 59.0488 1411.57 59.2079 1412.32 59.2079C1412.8 59.2079 1413.24 59.1397 1413.64 59.0033C1414.04 58.8613 1414.38 58.651 1414.67 58.3726C1414.96 58.0942 1415.18 57.7505 1415.34 57.3414L1417.75 57.776C1417.56 58.4863 1417.21 59.1084 1416.71 59.6425C1416.21 60.1709 1415.59 60.5829 1414.84 60.8783C1414.1 61.1681 1413.25 61.313 1412.29 61.313ZM1430.55 51.1539L1428.24 51.563C1428.14 51.2675 1427.99 50.9863 1427.78 50.7192C1427.57 50.4522 1427.29 50.2334 1426.94 50.063C1426.59 49.8925 1426.15 49.8073 1425.62 49.8073C1424.9 49.8073 1424.3 49.9692 1423.81 50.2931C1423.33 50.6113 1423.09 51.0232 1423.09 51.5289C1423.09 51.9664 1423.25 52.3187 1423.58 52.5857C1423.9 52.8527 1424.42 53.0715 1425.14 53.2419L1427.22 53.7192C1428.43 53.9976 1429.33 54.4266 1429.92 55.0062C1430.51 55.5857 1430.8 56.3385 1430.8 57.2647C1430.8 58.0488 1430.58 58.7476 1430.12 59.3613C1429.67 59.9692 1429.04 60.4465 1428.24 60.7931C1427.44 61.1397 1426.51 61.313 1425.45 61.313C1423.98 61.313 1422.79 61.0005 1421.86 60.3755C1420.94 59.7448 1420.37 58.8499 1420.16 57.6908L1422.62 57.3158C1422.77 57.9579 1423.09 58.4437 1423.57 58.7732C1424.04 59.0971 1424.67 59.259 1425.43 59.259C1426.27 59.259 1426.94 59.0857 1427.44 58.7391C1427.94 58.3868 1428.19 57.9579 1428.19 57.4522C1428.19 57.0431 1428.03 56.6993 1427.73 56.4209C1427.43 56.1425 1426.96 55.9323 1426.34 55.7902L1424.12 55.3044C1422.9 55.026 1422 54.5829 1421.41 53.9749C1420.83 53.3669 1420.54 52.5971 1420.54 51.6652C1420.54 50.8925 1420.76 50.2164 1421.19 49.6368C1421.62 49.0573 1422.22 48.6056 1422.98 48.2817C1423.74 47.9522 1424.61 47.7874 1425.6 47.7874C1427.01 47.7874 1428.12 48.0942 1428.94 48.7079C1429.75 49.3158 1430.29 50.1312 1430.55 51.1539ZM1435.28 61.2107C1434.82 61.2107 1434.42 61.0459 1434.08 60.7164C1433.75 60.3812 1433.58 59.9777 1433.58 59.5062C1433.58 59.0402 1433.75 58.6425 1434.08 58.313C1434.42 57.9777 1434.82 57.8101 1435.28 57.8101C1435.75 57.8101 1436.15 57.9777 1436.49 58.313C1436.82 58.6425 1436.99 59.0402 1436.99 59.5062C1436.99 59.8187 1436.91 60.1056 1436.75 60.3669C1436.6 60.6226 1436.39 60.8272 1436.14 60.9806C1435.88 61.134 1435.6 61.2107 1435.28 61.2107Z" fill="black"/>
<path d="M758.281 61.0488V59.1397L764.187 53.0204C764.817 52.3556 765.337 51.7732 765.746 51.2732C766.161 50.7675 766.471 50.2874 766.675 49.8329C766.88 49.3783 766.982 48.8954 766.982 48.384C766.982 47.8044 766.846 47.3044 766.573 46.884C766.3 46.4579 765.928 46.1312 765.457 45.9039C764.985 45.6709 764.454 45.5544 763.863 45.5544C763.238 45.5544 762.692 45.6823 762.227 45.938C761.761 46.1937 761.403 46.5544 761.153 47.0204C760.903 47.4863 760.778 48.0317 760.778 48.6567H758.263C758.263 47.5942 758.508 46.6652 758.996 45.8698C759.485 45.0743 760.156 44.4579 761.008 44.0204C761.86 43.5772 762.829 43.3556 763.914 43.3556C765.011 43.3556 765.977 43.5743 766.812 44.0118C767.653 44.4437 768.309 45.0346 768.781 45.7846C769.252 46.5289 769.488 47.3698 769.488 48.3073C769.488 48.955 769.366 49.5885 769.121 50.2079C768.883 50.8272 768.465 51.5175 767.869 52.2789C767.272 53.0346 766.442 53.9522 765.38 55.0317L761.911 58.6624V58.7902H769.769V61.0488H758.281ZM779.076 61.3385C777.729 61.3329 776.579 60.9777 775.624 60.2732C774.67 59.5687 773.94 58.5431 773.434 57.1965C772.928 55.8499 772.675 54.2277 772.675 52.33C772.675 50.438 772.928 48.8215 773.434 47.4806C773.945 46.1397 774.678 45.1169 775.633 44.4124C776.593 43.7079 777.741 43.3556 779.076 43.3556C780.411 43.3556 781.556 43.7107 782.511 44.4209C783.465 45.1255 784.195 46.1482 784.701 47.4891C785.212 48.8243 785.468 50.438 785.468 52.33C785.468 54.2334 785.215 55.8584 784.71 57.205C784.204 58.5459 783.474 59.5715 782.519 60.2817C781.565 60.9863 780.417 61.3385 779.076 61.3385ZM779.076 59.063C780.258 59.063 781.181 58.4863 781.846 57.3329C782.516 56.1794 782.852 54.5118 782.852 52.33C782.852 50.8812 782.698 49.6567 782.391 48.6567C782.09 47.651 781.656 46.8897 781.087 46.3726C780.525 45.8499 779.854 45.5885 779.076 45.5885C777.9 45.5885 776.977 46.1681 776.306 47.3272C775.636 48.4863 775.298 50.1539 775.292 52.33C775.292 53.7846 775.442 55.0147 775.744 56.0204C776.05 57.0204 776.485 57.7789 777.048 58.2959C777.61 58.8073 778.286 59.063 779.076 59.063ZM795.114 43.5942V61.0488H792.472V46.2363H792.369L788.193 48.9635V46.4408L792.548 43.5942H795.114ZM805.639 43.3556C806.418 43.3613 807.185 43.5033 807.94 43.7817C808.696 44.0601 809.378 44.5147 809.986 45.1454C810.599 45.776 811.088 46.6283 811.452 47.7022C811.821 48.7704 812.009 50.0999 812.014 51.6908C812.014 53.2192 811.861 54.58 811.554 55.7732C811.247 56.9607 810.807 57.9635 810.233 58.7817C809.665 59.5999 808.974 60.2221 808.162 60.6482C807.349 61.0743 806.435 61.2874 805.418 61.2874C804.378 61.2874 803.455 61.0829 802.648 60.6738C801.841 60.2647 801.185 59.6993 800.679 58.9777C800.173 58.2505 799.858 57.4152 799.733 56.4721H802.332C802.503 57.2221 802.849 57.83 803.372 58.2959C803.901 58.7562 804.582 58.9863 805.418 58.9863C806.696 58.9863 807.693 58.4294 808.409 57.3158C809.125 56.1965 809.486 54.634 809.491 52.6283H809.355C809.06 53.1169 808.69 53.5374 808.247 53.8897C807.81 54.2419 807.318 54.5147 806.773 54.7079C806.227 54.901 805.645 54.9976 805.026 54.9976C804.02 54.9976 803.105 54.7505 802.281 54.2562C801.457 53.7618 800.801 53.0829 800.312 52.2192C799.824 51.3556 799.58 50.3698 799.58 49.2618C799.58 48.1596 799.83 47.1596 800.33 46.2618C800.835 45.3641 801.54 44.6539 802.443 44.1312C803.352 43.6027 804.418 43.3442 805.639 43.3556ZM805.648 45.5715C804.983 45.5715 804.384 45.7363 803.849 46.0658C803.321 46.3897 802.903 46.83 802.597 47.3868C802.29 47.938 802.136 48.5516 802.136 49.2277C802.136 49.9039 802.284 50.5175 802.58 51.0687C802.881 51.6141 803.29 52.0488 803.807 52.3726C804.33 52.6908 804.926 52.8499 805.597 52.8499C806.097 52.8499 806.563 52.7533 806.994 52.5601C807.426 52.3669 807.804 52.0999 808.128 51.759C808.452 51.4124 808.705 51.0204 808.886 50.5829C809.068 50.1454 809.159 49.6851 809.159 49.2022C809.159 48.5601 809.006 47.9635 808.699 47.4124C808.398 46.8613 807.983 46.4181 807.455 46.0829C806.926 45.7419 806.324 45.5715 805.648 45.5715ZM829.192 51.2135V53.4294H821.453V51.2135H829.192ZM838.906 61.0488V59.1397L844.812 53.0204C845.442 52.3556 845.962 51.7732 846.371 51.2732C846.786 50.7675 847.096 50.2874 847.3 49.8329C847.505 49.3783 847.607 48.8954 847.607 48.384C847.607 47.8044 847.471 47.3044 847.198 46.884C846.925 46.4579 846.553 46.1312 846.082 45.9039C845.61 45.6709 845.079 45.5544 844.488 45.5544C843.863 45.5544 843.317 45.6823 842.852 45.938C842.386 46.1937 842.028 46.5544 841.778 47.0204C841.528 47.4863 841.403 48.0317 841.403 48.6567H838.888C838.888 47.5942 839.133 46.6652 839.621 45.8698C840.11 45.0743 840.781 44.4579 841.633 44.0204C842.485 43.5772 843.454 43.3556 844.539 43.3556C845.636 43.3556 846.602 43.5743 847.437 44.0118C848.278 44.4437 848.934 45.0346 849.406 45.7846C849.877 46.5289 850.113 47.3698 850.113 48.3073C850.113 48.955 849.991 49.5885 849.746 50.2079C849.508 50.8272 849.09 51.5175 848.494 52.2789C847.897 53.0346 847.067 53.9522 846.005 55.0317L842.536 58.6624V58.7902H850.394V61.0488H838.906ZM859.701 61.3385C858.354 61.3329 857.204 60.9777 856.249 60.2732C855.295 59.5687 854.565 58.5431 854.059 57.1965C853.553 55.8499 853.3 54.2277 853.3 52.33C853.3 50.438 853.553 48.8215 854.059 47.4806C854.57 46.1397 855.303 45.1169 856.258 44.4124C857.218 43.7079 858.366 43.3556 859.701 43.3556C861.036 43.3556 862.181 43.7107 863.136 44.4209C864.09 45.1255 864.82 46.1482 865.326 47.4891C865.837 48.8243 866.093 50.438 866.093 52.33C866.093 54.2334 865.84 55.8584 865.335 57.205C864.829 58.5459 864.099 59.5715 863.144 60.2817C862.19 60.9863 861.042 61.3385 859.701 61.3385ZM859.701 59.063C860.883 59.063 861.806 58.4863 862.471 57.3329C863.141 56.1794 863.477 54.5118 863.477 52.33C863.477 50.8812 863.323 49.6567 863.016 48.6567C862.715 47.651 862.281 46.8897 861.712 46.3726C861.15 45.8499 860.479 45.5885 859.701 45.5885C858.525 45.5885 857.602 46.1681 856.931 47.3272C856.261 48.4863 855.923 50.1539 855.917 52.33C855.917 53.7846 856.067 55.0147 856.369 56.0204C856.675 57.0204 857.11 57.7789 857.673 58.2959C858.235 58.8073 858.911 59.063 859.701 59.063ZM869.116 61.0488V59.1397L875.023 53.0204C875.653 52.3556 876.173 51.7732 876.582 51.2732C876.997 50.7675 877.307 50.2874 877.511 49.8329C877.716 49.3783 877.818 48.8954 877.818 48.384C877.818 47.8044 877.682 47.3044 877.409 46.884C877.136 46.4579 876.764 46.1312 876.293 45.9039C875.821 45.6709 875.29 45.5544 874.699 45.5544C874.074 45.5544 873.528 45.6823 873.062 45.938C872.597 46.1937 872.239 46.5544 871.989 47.0204C871.739 47.4863 871.614 48.0317 871.614 48.6567H869.099C869.099 47.5942 869.344 46.6652 869.832 45.8698C870.321 45.0743 870.991 44.4579 871.844 44.0204C872.696 43.5772 873.665 43.3556 874.75 43.3556C875.847 43.3556 876.813 43.5743 877.648 44.0118C878.489 44.4437 879.145 45.0346 879.616 45.7846C880.088 46.5289 880.324 47.3698 880.324 48.3073C880.324 48.955 880.202 49.5885 879.957 50.2079C879.719 50.8272 879.301 51.5175 878.705 52.2789C878.108 53.0346 877.278 53.9522 876.216 55.0317L872.747 58.6624V58.7902H880.605V61.0488H869.116ZM889.912 61.3385C888.565 61.3329 887.415 60.9777 886.46 60.2732C885.506 59.5687 884.776 58.5431 884.27 57.1965C883.764 55.8499 883.511 54.2277 883.511 52.33C883.511 50.438 883.764 48.8215 884.27 47.4806C884.781 46.1397 885.514 45.1169 886.469 44.4124C887.429 43.7079 888.577 43.3556 889.912 43.3556C891.247 43.3556 892.392 43.7107 893.347 44.4209C894.301 45.1255 895.031 46.1482 895.537 47.4891C896.048 48.8243 896.304 50.438 896.304 52.33C896.304 54.2334 896.051 55.8584 895.545 57.205C895.04 58.5459 894.31 59.5715 893.355 60.2817C892.401 60.9863 891.253 61.3385 889.912 61.3385ZM889.912 59.063C891.094 59.063 892.017 58.4863 892.682 57.3329C893.352 56.1794 893.688 54.5118 893.688 52.33C893.688 50.8812 893.534 49.6567 893.227 48.6567C892.926 47.651 892.491 46.8897 891.923 46.3726C891.361 45.8499 890.69 45.5885 889.912 45.5885C888.736 45.5885 887.813 46.1681 887.142 47.3272C886.472 48.4863 886.134 50.1539 886.128 52.33C886.128 53.7846 886.278 55.0147 886.58 56.0204C886.886 57.0204 887.321 57.7789 887.884 58.2959C888.446 58.8073 889.122 59.063 889.912 59.063Z" fill="black"/>
<path d="M221.736 61.0488V59.1397L227.642 53.0204C228.273 52.3556 228.793 51.7732 229.202 51.2732C229.616 50.7675 229.926 50.2874 230.131 49.8329C230.335 49.3783 230.438 48.8954 230.438 48.384C230.438 47.8044 230.301 47.3044 230.028 46.884C229.756 46.4579 229.384 46.1312 228.912 45.9039C228.44 45.6709 227.909 45.5544 227.318 45.5544C226.693 45.5544 226.148 45.6823 225.682 45.938C225.216 46.1937 224.858 46.5544 224.608 47.0204C224.358 47.4863 224.233 48.0317 224.233 48.6567H221.719C221.719 47.5942 221.963 46.6652 222.452 45.8698C222.94 45.0743 223.611 44.4579 224.463 44.0204C225.315 43.5772 226.284 43.3556 227.369 43.3556C228.466 43.3556 229.432 43.5743 230.267 44.0118C231.108 44.4437 231.764 45.0346 232.236 45.7846C232.707 46.5289 232.943 47.3698 232.943 48.3073C232.943 48.955 232.821 49.5885 232.577 50.2079C232.338 50.8272 231.92 51.5175 231.324 52.2789C230.727 53.0346 229.898 53.9522 228.835 55.0317L225.366 58.6624V58.7902H233.224V61.0488H221.736ZM242.531 61.3385C241.185 61.3329 240.034 60.9777 239.08 60.2732C238.125 59.5687 237.395 58.5431 236.889 57.1965C236.384 55.8499 236.131 54.2277 236.131 52.33C236.131 50.438 236.384 48.8215 236.889 47.4806C237.401 46.1397 238.134 45.1169 239.088 44.4124C240.048 43.7079 241.196 43.3556 242.531 43.3556C243.866 43.3556 245.011 43.7107 245.966 44.4209C246.92 45.1255 247.651 46.1482 248.156 47.4891C248.668 48.8243 248.923 50.438 248.923 52.33C248.923 54.2334 248.67 55.8584 248.165 57.205C247.659 58.5459 246.929 59.5715 245.974 60.2817C245.02 60.9863 243.872 61.3385 242.531 61.3385ZM242.531 59.063C243.713 59.063 244.636 58.4863 245.301 57.3329C245.972 56.1794 246.307 54.5118 246.307 52.33C246.307 50.8812 246.153 49.6567 245.847 48.6567C245.545 47.651 245.111 46.8897 244.543 46.3726C243.98 45.8499 243.31 45.5885 242.531 45.5885C241.355 45.5885 240.432 46.1681 239.761 47.3272C239.091 48.4863 238.753 50.1539 238.747 52.33C238.747 53.7846 238.898 55.0147 239.199 56.0204C239.506 57.0204 239.94 57.7789 240.503 58.2959C241.065 58.8073 241.741 59.063 242.531 59.063ZM258.569 43.5942V61.0488H255.927V46.2363H255.825L251.648 48.9635V46.4408L256.004 43.5942H258.569ZM269.188 61.2874C267.967 61.2874 266.887 61.0772 265.95 60.6567C265.018 60.2363 264.288 59.6567 263.759 58.9181C263.231 58.1794 262.969 57.3385 262.975 56.3954C262.969 55.6567 263.12 54.9777 263.427 54.3584C263.739 53.7334 264.163 53.2135 264.697 52.7988C265.231 52.3783 265.827 52.1113 266.487 51.9976V51.8954C265.617 51.6851 264.921 51.2192 264.398 50.4976C263.876 49.776 263.617 48.9465 263.623 48.009C263.617 47.1169 263.853 46.3215 264.33 45.6226C264.813 44.9181 265.475 44.3641 266.316 43.9607C267.157 43.5573 268.114 43.3556 269.188 43.3556C270.251 43.3556 271.2 43.5601 272.035 43.9692C272.876 44.3726 273.538 44.9266 274.021 45.6312C274.504 46.33 274.748 47.1226 274.754 48.009C274.748 48.9465 274.481 49.776 273.952 50.4976C273.424 51.2192 272.737 51.6851 271.89 51.8954V51.9976C272.543 52.1113 273.131 52.3783 273.654 52.7988C274.183 53.2135 274.603 53.7334 274.915 54.3584C275.234 54.9777 275.396 55.6567 275.401 56.3954C275.396 57.3385 275.129 58.1794 274.6 58.9181C274.072 59.6567 273.339 60.2363 272.401 60.6567C271.469 61.0772 270.398 61.2874 269.188 61.2874ZM269.188 59.1312C269.91 59.1312 270.535 59.0118 271.063 58.7732C271.592 58.5289 272.001 58.1908 272.29 57.759C272.58 57.3215 272.728 56.8101 272.734 56.2249C272.728 55.6169 272.569 55.08 272.256 54.6141C271.95 54.1482 271.532 53.7817 271.004 53.5147C270.475 53.2476 269.87 53.1141 269.188 53.1141C268.501 53.1141 267.89 53.2476 267.356 53.5147C266.822 53.7817 266.401 54.1482 266.094 54.6141C265.788 55.08 265.637 55.6169 265.643 56.2249C265.637 56.8101 265.776 57.3215 266.06 57.759C266.35 58.1908 266.762 58.5289 267.296 58.7732C267.83 59.0118 268.461 59.1312 269.188 59.1312ZM269.188 51.009C269.768 51.009 270.282 50.8925 270.731 50.6596C271.18 50.4266 271.532 50.1027 271.788 49.688C272.049 49.2732 272.183 48.7874 272.188 48.2306C272.183 47.6851 272.052 47.2079 271.796 46.7988C271.546 46.3897 271.197 46.0743 270.748 45.8527C270.299 45.6255 269.779 45.5118 269.188 45.5118C268.586 45.5118 268.058 45.6255 267.603 45.8527C267.154 46.0743 266.805 46.3897 266.555 46.7988C266.305 47.2079 266.183 47.6851 266.188 48.2306C266.183 48.7874 266.308 49.2732 266.563 49.688C266.819 50.1027 267.171 50.4266 267.62 50.6596C268.075 50.8925 268.597 51.009 269.188 51.009ZM292.553 51.2135V53.4294H284.815V51.2135H292.553ZM302.267 61.0488V59.1397L308.173 53.0204C308.804 52.3556 309.324 51.7732 309.733 51.2732C310.148 50.7675 310.457 50.2874 310.662 49.8329C310.866 49.3783 310.969 48.8954 310.969 48.384C310.969 47.8044 310.832 47.3044 310.56 46.884C310.287 46.4579 309.915 46.1312 309.443 45.9039C308.972 45.6709 308.44 45.5544 307.849 45.5544C307.224 45.5544 306.679 45.6823 306.213 45.938C305.747 46.1937 305.389 46.5544 305.139 47.0204C304.889 47.4863 304.764 48.0317 304.764 48.6567H302.25C302.25 47.5942 302.494 46.6652 302.983 45.8698C303.472 45.0743 304.142 44.4579 304.994 44.0204C305.847 43.5772 306.815 43.3556 307.901 43.3556C308.997 43.3556 309.963 43.5743 310.798 44.0118C311.639 44.4437 312.295 45.0346 312.767 45.7846C313.239 46.5289 313.474 47.3698 313.474 48.3073C313.474 48.955 313.352 49.5885 313.108 50.2079C312.869 50.8272 312.452 51.5175 311.855 52.2789C311.259 53.0346 310.429 53.9522 309.366 55.0317L305.898 58.6624V58.7902H313.756V61.0488H302.267ZM323.063 61.3385C321.716 61.3329 320.565 60.9777 319.611 60.2732C318.656 59.5687 317.926 58.5431 317.42 57.1965C316.915 55.8499 316.662 54.2277 316.662 52.33C316.662 50.438 316.915 48.8215 317.42 47.4806C317.932 46.1397 318.665 45.1169 319.619 44.4124C320.58 43.7079 321.727 43.3556 323.063 43.3556C324.398 43.3556 325.543 43.7107 326.497 44.4209C327.452 45.1255 328.182 46.1482 328.688 47.4891C329.199 48.8243 329.455 50.438 329.455 52.33C329.455 54.2334 329.202 55.8584 328.696 57.205C328.19 58.5459 327.46 59.5715 326.506 60.2817C325.551 60.9863 324.403 61.3385 323.063 61.3385ZM323.063 59.063C324.244 59.063 325.168 58.4863 325.832 57.3329C326.503 56.1794 326.838 54.5118 326.838 52.33C326.838 50.8812 326.685 49.6567 326.378 48.6567C326.077 47.651 325.642 46.8897 325.074 46.3726C324.511 45.8499 323.841 45.5885 323.063 45.5885C321.886 45.5885 320.963 46.1681 320.293 47.3272C319.622 48.4863 319.284 50.1539 319.278 52.33C319.278 53.7846 319.429 55.0147 319.73 56.0204C320.037 57.0204 320.472 57.7789 321.034 58.2959C321.597 58.8073 322.273 59.063 323.063 59.063ZM339.1 43.5942V61.0488H336.458V46.2363H336.356L332.18 48.9635V46.4408L336.535 43.5942H339.1ZM349.626 43.3556C350.404 43.3613 351.171 43.5033 351.927 43.7817C352.683 44.0601 353.364 44.5147 353.972 45.1454C354.586 45.776 355.075 46.6283 355.438 47.7022C355.808 48.7704 355.995 50.0999 356.001 51.6908C356.001 53.2192 355.847 54.58 355.54 55.7732C355.234 56.9607 354.793 57.9635 354.219 58.7817C353.651 59.5999 352.961 60.2221 352.148 60.6482C351.336 61.0743 350.421 61.2874 349.404 61.2874C348.364 61.2874 347.441 61.0829 346.634 60.6738C345.827 60.2647 345.171 59.6993 344.665 58.9777C344.16 58.2505 343.844 57.4152 343.719 56.4721H346.319C346.489 57.2221 346.836 57.83 347.359 58.2959C347.887 58.7562 348.569 58.9863 349.404 58.9863C350.683 58.9863 351.68 58.4294 352.396 57.3158C353.112 56.1965 353.472 54.634 353.478 52.6283H353.342C353.046 53.1169 352.677 53.5374 352.234 53.8897C351.796 54.2419 351.305 54.5147 350.759 54.7079C350.214 54.901 349.631 54.9976 349.012 54.9976C348.006 54.9976 347.092 54.7505 346.268 54.2562C345.444 53.7618 344.788 53.0829 344.299 52.2192C343.81 51.3556 343.566 50.3698 343.566 49.2618C343.566 48.1596 343.816 47.1596 344.316 46.2618C344.822 45.3641 345.526 44.6539 346.43 44.1312C347.339 43.6027 348.404 43.3442 349.626 43.3556ZM349.634 45.5715C348.969 45.5715 348.37 45.7363 347.836 46.0658C347.308 46.3897 346.89 46.83 346.583 47.3868C346.276 47.938 346.123 48.5516 346.123 49.2277C346.123 49.9039 346.271 50.5175 346.566 51.0687C346.867 51.6141 347.276 52.0488 347.793 52.3726C348.316 52.6908 348.913 52.8499 349.583 52.8499C350.083 52.8499 350.549 52.7533 350.981 52.5601C351.413 52.3669 351.79 52.0999 352.114 51.759C352.438 51.4124 352.691 51.0204 352.873 50.5829C353.055 50.1454 353.146 49.6851 353.146 49.2022C353.146 48.5601 352.992 47.9635 352.685 47.4124C352.384 46.8613 351.969 46.4181 351.441 46.0829C350.913 45.7419 350.31 45.5715 349.634 45.5715Z" fill="black"/>
<g filter="url(#filter0_d_2_61)">
<path d="M1627.27 175.559C1627.85 174.972 1627.85 174.022 1627.26 173.437L1617.7 163.91C1617.11 163.326 1616.16 163.328 1615.58 163.914C1614.99 164.501 1614.99 165.451 1615.58 166.036L1624.08 174.504L1615.61 183.006C1615.03 183.593 1615.03 184.543 1615.62 185.128C1616.21 185.712 1617.16 185.71 1617.74 185.123L1627.27 175.559ZM47.4147 179.132L48.9147 179.129L48.9088 176.129L47.4088 176.132L47.4147 179.132ZM72.0389 176.083L70.5389 176.086L70.5449 179.086L72.0449 179.083L72.0389 176.083ZM106.527 179.015L108.027 179.012L108.021 176.012L106.521 176.015L106.527 179.015ZM131.151 175.966L129.651 175.969L129.657 178.969L131.157 178.966L131.151 175.966ZM165.639 178.898L167.139 178.895L167.133 175.895L165.633 175.898L165.639 178.898ZM190.264 175.849L188.764 175.852L188.77 178.852L190.27 178.849L190.264 175.849ZM224.752 178.78L226.252 178.777L226.246 175.777L224.746 175.78L224.752 178.78ZM249.376 175.731L247.876 175.734L247.882 178.734L249.382 178.731L249.376 175.731ZM283.864 178.663L285.364 178.66L285.358 175.66L283.858 175.663L283.864 178.663ZM308.488 175.614L306.988 175.617L306.994 178.617L308.494 178.614L308.488 175.614ZM342.976 178.546L344.476 178.543L344.471 175.543L342.971 175.546L342.976 178.546ZM367.601 175.497L366.101 175.5L366.107 178.5L367.607 178.497L367.601 175.497ZM402.089 178.429L403.589 178.426L403.583 175.426L402.083 175.429L402.089 178.429ZM426.713 175.38L425.213 175.383L425.219 178.383L426.719 178.38L426.713 175.38ZM461.201 178.311L462.701 178.308L462.695 175.308L461.195 175.311L461.201 178.311ZM485.825 175.262L484.325 175.265L484.331 178.265L485.831 178.262L485.825 175.262ZM520.314 178.194L521.814 178.191L521.808 175.191L520.308 175.194L520.314 178.194ZM544.938 175.145L543.438 175.148L543.444 178.148L544.944 178.145L544.938 175.145ZM579.426 178.077L580.926 178.074L580.92 175.074L579.42 175.077L579.426 178.077ZM604.05 175.028L602.55 175.031L602.556 178.031L604.056 178.028L604.05 175.028ZM638.538 177.959L640.038 177.956L640.032 174.956L638.532 174.959L638.538 177.959ZM663.162 174.911L661.662 174.914L661.668 177.914L663.168 177.911L663.162 174.911ZM697.651 177.842L699.151 177.839L699.145 174.839L697.645 174.842L697.651 177.842ZM722.275 174.793L720.775 174.796L720.781 177.796L722.281 177.793L722.275 174.793ZM756.763 177.725L758.263 177.722L758.257 174.722L756.757 174.725L756.763 177.725ZM781.387 174.676L779.887 174.679L779.893 177.679L781.393 177.676L781.387 174.676ZM815.875 177.608L817.375 177.605L817.369 174.605L815.869 174.608L815.875 177.608ZM840.5 174.559L839 174.562L839.006 177.562L840.506 177.559L840.5 174.559ZM874.988 177.49L876.488 177.487L876.482 174.487L874.982 174.49L874.988 177.49ZM899.612 174.441L898.112 174.444L898.118 177.444L899.618 177.441L899.612 174.441ZM934.1 177.373L935.6 177.37L935.594 174.37L934.094 174.373L934.1 177.373ZM958.724 174.324L957.224 174.327L957.23 177.327L958.73 177.324L958.724 174.324ZM993.213 177.256L994.713 177.253L994.707 174.253L993.207 174.256L993.213 177.256ZM1017.84 174.207L1016.34 174.21L1016.34 177.21L1017.84 177.207L1017.84 174.207ZM1052.32 177.139L1053.82 177.136L1053.82 174.136L1052.32 174.139L1052.32 177.139ZM1076.95 174.09L1075.45 174.093L1075.46 177.093L1076.96 177.09L1076.95 174.09ZM1111.44 177.021L1112.94 177.018L1112.93 174.018L1111.43 174.021L1111.44 177.021ZM1136.06 173.972L1134.56 173.975L1134.57 176.975L1136.07 176.972L1136.06 173.972ZM1170.55 176.904L1172.05 176.901L1172.04 173.901L1170.54 173.904L1170.55 176.904ZM1195.17 173.855L1193.67 173.858L1193.68 176.858L1195.18 176.855L1195.17 173.855ZM1229.66 176.787L1231.16 176.784L1231.16 173.784L1229.66 173.787L1229.66 176.787ZM1254.29 173.738L1252.79 173.741L1252.79 176.741L1254.29 176.738L1254.29 173.738ZM1288.77 176.669L1290.27 176.666L1290.27 173.666L1288.77 173.669L1288.77 176.669ZM1313.4 173.621L1311.9 173.624L1311.9 176.624L1313.4 176.621L1313.4 173.621ZM1347.89 176.552L1349.39 176.549L1349.38 173.549L1347.88 173.552L1347.89 176.552ZM1372.51 173.503L1371.01 173.506L1371.02 176.506L1372.52 176.503L1372.51 173.503ZM1407 176.435L1408.5 176.432L1408.49 173.432L1406.99 173.435L1407 176.435ZM1431.62 173.386L1430.12 173.389L1430.13 176.389L1431.63 176.386L1431.62 173.386ZM1466.11 176.318L1467.61 176.315L1467.61 173.315L1466.11 173.318L1466.11 176.318ZM1490.74 173.269L1489.24 173.272L1489.24 176.272L1490.74 176.269L1490.74 173.269ZM1525.22 176.2L1526.72 176.197L1526.72 173.197L1525.22 173.2L1525.22 176.2ZM1549.85 173.151L1548.35 173.154L1548.35 176.154L1549.85 176.151L1549.85 173.151ZM1584.34 176.083L1585.84 176.08L1585.83 173.08L1584.33 173.083L1584.34 176.083ZM1608.96 173.034L1607.46 173.037L1607.47 176.037L1608.97 176.034L1608.96 173.034ZM30.1736 179.166L47.4147 179.132L47.4088 176.132L30.1677 176.166L30.1736 179.166ZM72.0449 179.083L106.527 179.015L106.521 176.015L72.0389 176.083L72.0449 179.083ZM131.157 178.966L165.639 178.898L165.633 175.898L131.151 175.966L131.157 178.966ZM190.27 178.849L224.752 178.78L224.746 175.78L190.264 175.849L190.27 178.849ZM249.382 178.731L283.864 178.663L283.858 175.663L249.376 175.731L249.382 178.731ZM308.494 178.614L342.976 178.546L342.971 175.546L308.488 175.614L308.494 178.614ZM367.607 178.497L402.089 178.429L402.083 175.429L367.601 175.497L367.607 178.497ZM426.719 178.38L461.201 178.311L461.195 175.311L426.713 175.38L426.719 178.38ZM485.831 178.262L520.314 178.194L520.308 175.194L485.825 175.262L485.831 178.262ZM544.944 178.145L579.426 178.077L579.42 175.077L544.938 175.145L544.944 178.145ZM604.056 178.028L638.538 177.959L638.532 174.959L604.05 175.028L604.056 178.028ZM663.168 177.911L697.651 177.842L697.645 174.842L663.162 174.911L663.168 177.911ZM722.281 177.793L756.763 177.725L756.757 174.725L722.275 174.793L722.281 177.793ZM781.393 177.676L815.875 177.608L815.869 174.608L781.387 174.676L781.393 177.676ZM840.506 177.559L874.988 177.49L874.982 174.49L840.5 174.559L840.506 177.559ZM899.618 177.441L934.1 177.373L934.094 174.373L899.612 174.441L899.618 177.441ZM958.73 177.324L993.213 177.256L993.207 174.256L958.724 174.324L958.73 177.324ZM1017.84 177.207L1052.32 177.139L1052.32 174.139L1017.84 174.207L1017.84 177.207ZM1076.96 177.09L1111.44 177.021L1111.43 174.021L1076.95 174.09L1076.96 177.09ZM1136.07 176.972L1170.55 176.904L1170.54 173.904L1136.06 173.972L1136.07 176.972ZM1195.18 176.855L1229.66 176.787L1229.66 173.787L1195.17 173.855L1195.18 176.855ZM1254.29 176.738L1288.77 176.669L1288.77 173.669L1254.29 173.738L1254.29 176.738ZM1313.4 176.621L1347.89 176.552L1347.88 173.552L1313.4 173.621L1313.4 176.621ZM1372.52 176.503L1407 176.435L1406.99 173.435L1372.51 173.503L1372.52 176.503ZM1431.63 176.386L1466.11 176.318L1466.11 173.318L1431.62 173.386L1431.63 176.386ZM1490.74 176.269L1525.22 176.2L1525.22 173.2L1490.74 173.269L1490.74 176.269ZM1549.85 176.151L1584.34 176.083L1584.33 173.083L1549.85 173.151L1549.85 176.151ZM1608.97 176.034L1626.21 176L1626.2 173L1608.96 173.034L1608.97 176.034ZM1628.33 176.617C1629.5 175.443 1629.5 173.544 1628.32 172.374L1609.19 153.32C1608.02 152.151 1606.12 152.155 1604.95 153.329C1603.78 154.503 1603.78 156.402 1604.96 157.572L1621.96 174.508L1605.02 191.513C1603.86 192.686 1603.86 194.586 1605.03 195.755C1606.21 196.924 1608.11 196.921 1609.28 195.747L1628.33 176.617ZM47.4177 180.632L50.4177 180.626L50.4058 174.626L47.4058 174.632L47.4177 180.632ZM72.036 174.583L69.036 174.589L69.0479 180.589L72.0479 180.583L72.036 174.583ZM106.53 180.515L109.53 180.509L109.518 174.509L106.518 174.515L106.53 180.515ZM131.148 174.466L128.148 174.472L128.16 180.472L131.16 180.466L131.148 174.466ZM165.642 180.398L168.642 180.392L168.631 174.392L165.631 174.398L165.642 180.398ZM190.261 174.349L187.261 174.355L187.273 180.355L190.273 180.349L190.261 174.349ZM224.755 180.28L227.755 180.274L227.743 174.274L224.743 174.28L224.755 180.28ZM249.373 174.231L246.373 174.237L246.385 180.237L249.385 180.231L249.373 174.231ZM283.867 180.163L286.867 180.157L286.855 174.157L283.855 174.163L283.867 180.163ZM308.485 174.114L305.485 174.12L305.497 180.12L308.497 180.114L308.485 174.114ZM342.979 180.046L345.979 180.04L345.968 174.04L342.968 174.046L342.979 180.046ZM367.598 173.997L364.598 174.003L364.61 180.003L367.61 179.997L367.598 173.997ZM402.092 179.929L405.092 179.923L405.08 173.923L402.08 173.929L402.092 179.929ZM426.71 173.88L423.71 173.886L423.722 179.886L426.722 179.88L426.71 173.88ZM461.204 179.811L464.204 179.805L464.192 173.805L461.192 173.811L461.204 179.811ZM485.822 173.762L482.822 173.768L482.834 179.768L485.834 179.762L485.822 173.762ZM520.316 179.694L523.316 179.688L523.305 173.688L520.305 173.694L520.316 179.694ZM544.935 173.645L541.935 173.651L541.947 179.651L544.947 179.645L544.935 173.645ZM579.429 179.577L582.429 179.571L582.417 173.571L579.417 173.577L579.429 179.577ZM604.047 173.528L601.047 173.534L601.059 179.534L604.059 179.528L604.047 173.528ZM638.541 179.459L641.541 179.453L641.529 173.453L638.529 173.459L638.541 179.459ZM663.159 173.411L660.159 173.417L660.171 179.417L663.171 179.411L663.159 173.411ZM697.654 179.342L700.654 179.336L700.642 173.336L697.642 173.342L697.654 179.342ZM722.272 173.293L719.272 173.299L719.284 179.299L722.284 179.293L722.272 173.293ZM756.766 179.225L759.766 179.219L759.754 173.219L756.754 173.225L756.766 179.225ZM781.384 173.176L778.384 173.182L778.396 179.182L781.396 179.176L781.384 173.176ZM815.878 179.108L818.878 179.102L818.866 173.102L815.866 173.108L815.878 179.108ZM840.497 173.059L837.497 173.065L837.509 179.065L840.509 179.059L840.497 173.059ZM874.991 178.99L877.991 178.984L877.979 172.984L874.979 172.99L874.991 178.99ZM899.609 172.941L896.609 172.947L896.621 178.947L899.621 178.941L899.609 172.941ZM934.103 178.873L937.103 178.867L937.091 172.867L934.091 172.873L934.103 178.873ZM958.721 172.824L955.721 172.83L955.733 178.83L958.733 178.824L958.721 172.824ZM993.215 178.756L996.215 178.75L996.204 172.75L993.204 172.756L993.215 178.756ZM1017.83 172.707L1014.83 172.713L1014.85 178.713L1017.85 178.707L1017.83 172.707ZM1052.33 178.639L1055.33 178.633L1055.32 172.633L1052.32 172.639L1052.33 178.639ZM1076.95 172.59L1073.95 172.596L1073.96 178.596L1076.96 178.59L1076.95 172.59ZM1111.44 178.521L1114.44 178.515L1114.43 172.515L1111.43 172.521L1111.44 178.521ZM1136.06 172.472L1133.06 172.478L1133.07 178.478L1136.07 178.472L1136.06 172.472ZM1170.55 178.404L1173.55 178.398L1173.54 172.398L1170.54 172.404L1170.55 178.404ZM1195.17 172.355L1192.17 172.361L1192.18 178.361L1195.18 178.355L1195.17 172.355ZM1229.67 178.287L1232.67 178.281L1232.65 172.281L1229.65 172.287L1229.67 178.287ZM1254.28 172.238L1251.28 172.244L1251.3 178.244L1254.3 178.238L1254.28 172.238ZM1288.78 178.169L1291.78 178.163L1291.77 172.163L1288.77 172.169L1288.78 178.169ZM1313.4 172.121L1310.4 172.127L1310.41 178.127L1313.41 178.121L1313.4 172.121ZM1347.89 178.052L1350.89 178.046L1350.88 172.046L1347.88 172.052L1347.89 178.052ZM1372.51 172.003L1369.51 172.009L1369.52 178.009L1372.52 178.003L1372.51 172.003ZM1407 177.935L1410 177.929L1409.99 171.929L1406.99 171.935L1407 177.935ZM1431.62 171.886L1428.62 171.892L1428.63 177.892L1431.63 177.886L1431.62 171.886ZM1466.11 177.818L1469.11 177.812L1469.1 171.812L1466.1 171.818L1466.11 177.818ZM1490.73 171.769L1487.73 171.775L1487.75 177.775L1490.75 177.769L1490.73 171.769ZM1525.23 177.7L1528.23 177.694L1528.22 171.694L1525.22 171.7L1525.23 177.7ZM1549.85 171.651L1546.85 171.657L1546.86 177.657L1549.86 177.651L1549.85 171.651ZM1584.34 177.583L1587.34 177.577L1587.33 171.577L1584.33 171.583L1584.34 177.583ZM1608.96 171.534L1605.96 171.54L1605.97 177.54L1608.97 177.534L1608.96 171.534ZM30.1766 180.666L47.4177 180.632L47.4058 174.632L30.1647 174.666L30.1766 180.666ZM72.0479 180.583L106.53 180.515L106.518 174.515L72.036 174.583L72.0479 180.583ZM131.16 180.466L165.642 180.398L165.631 174.398L131.148 174.466L131.16 180.466ZM190.273 180.349L224.755 180.28L224.743 174.28L190.261 174.349L190.273 180.349ZM249.385 180.231L283.867 180.163L283.855 174.163L249.373 174.231L249.385 180.231ZM308.497 180.114L342.979 180.046L342.968 174.046L308.485 174.114L308.497 180.114ZM367.61 179.997L402.092 179.929L402.08 173.929L367.598 173.997L367.61 179.997ZM426.722 179.88L461.204 179.811L461.192 173.811L426.71 173.88L426.722 179.88ZM485.834 179.762L520.316 179.694L520.305 173.694L485.822 173.762L485.834 179.762ZM544.947 179.645L579.429 179.577L579.417 173.577L544.935 173.645L544.947 179.645ZM604.059 179.528L638.541 179.459L638.529 173.459L604.047 173.528L604.059 179.528ZM663.171 179.411L697.654 179.342L697.642 173.342L663.159 173.411L663.171 179.411ZM722.284 179.293L756.766 179.225L756.754 173.225L722.272 173.293L722.284 179.293ZM781.396 179.176L815.878 179.108L815.866 173.108L781.384 173.176L781.396 179.176ZM840.509 179.059L874.991 178.99L874.979 172.99L840.497 173.059L840.509 179.059ZM899.621 178.941L934.103 178.873L934.091 172.873L899.609 172.941L899.621 178.941ZM958.733 178.824L993.215 178.756L993.204 172.756L958.721 172.824L958.733 178.824ZM1017.85 178.707L1052.33 178.639L1052.32 172.639L1017.83 172.707L1017.85 178.707ZM1076.96 178.59L1111.44 178.521L1111.43 172.521L1076.95 172.59L1076.96 178.59ZM1136.07 178.472L1170.55 178.404L1170.54 172.404L1136.06 172.472L1136.07 178.472ZM1195.18 178.355L1229.67 178.287L1229.65 172.287L1195.17 172.355L1195.18 178.355ZM1254.3 178.238L1288.78 178.169L1288.77 172.169L1254.28 172.238L1254.3 178.238ZM1313.41 178.121L1347.89 178.052L1347.88 172.052L1313.4 172.121L1313.41 178.121ZM1372.52 178.003L1407 177.935L1406.99 171.935L1372.51 172.003L1372.52 178.003ZM1431.63 177.886L1466.11 177.818L1466.1 171.818L1431.62 171.886L1431.63 177.886ZM1490.75 177.769L1525.23 177.7L1525.22 171.7L1490.73 171.769L1490.75 177.769ZM1549.86 177.651L1584.34 177.583L1584.33 171.583L1549.85 171.651L1549.86 177.651ZM1608.97 177.534L1626.21 177.5L1626.2 171.5L1608.96 171.534L1608.97 177.534Z" fill="#4D79CE"/>
</g>
<g filter="url(#filter1_d_2_61)">
<circle cx="1368.71" cy="176.628" r="106.402" fill="#C5C5C5"/>
</g>
<path d="M1365.47 160.616V189.707H1361.43L1346.65 168.372H1346.38V189.707H1341.99V160.616H1346.05L1360.85 181.98H1361.12V160.616H1365.47ZM1391.56 169.807C1391.28 168.945 1390.91 168.173 1390.45 167.491C1390 166.8 1389.45 166.213 1388.82 165.73C1388.18 165.238 1387.46 164.864 1386.64 164.608C1385.84 164.352 1384.95 164.224 1383.99 164.224C1382.35 164.224 1380.87 164.646 1379.56 165.489C1378.24 166.331 1377.2 167.567 1376.43 169.196C1375.67 170.815 1375.29 172.799 1375.29 175.148C1375.29 177.506 1375.68 179.499 1376.44 181.128C1377.21 182.757 1378.26 183.992 1379.6 184.835C1380.93 185.678 1382.45 186.099 1384.16 186.099C1385.74 186.099 1387.12 185.777 1388.29 185.133C1389.47 184.49 1390.39 183.58 1391.03 182.406C1391.69 181.222 1392.01 179.83 1392.01 178.23L1393.15 178.443H1384.82V174.821H1396.26V178.131C1396.26 180.574 1395.74 182.695 1394.7 184.494C1393.66 186.284 1392.23 187.667 1390.41 188.642C1388.59 189.617 1386.51 190.105 1384.16 190.105C1381.52 190.105 1379.21 189.499 1377.23 188.287C1375.25 187.075 1373.7 185.356 1372.59 183.131C1371.49 180.896 1370.93 178.244 1370.93 175.176C1370.93 172.856 1371.25 170.773 1371.9 168.926C1372.54 167.079 1373.45 165.512 1374.61 164.224C1375.79 162.927 1377.16 161.937 1378.75 161.256C1380.34 160.564 1382.07 160.219 1383.96 160.219C1385.53 160.219 1386.99 160.451 1388.35 160.915C1389.71 161.379 1390.92 162.037 1391.98 162.889C1393.05 163.741 1393.94 164.755 1394.64 165.929C1395.34 167.094 1395.81 168.386 1396.06 169.807H1391.56Z" fill="white"/>
<g filter="url(#filter2_d_2_61)">
<circle cx="828.189" cy="176.628" r="106.402" fill="#C5C5C5"/>
</g>
<path d="M788.836 160.616H794.163L803.424 183.23H803.765L813.026 160.616H818.353V189.707H814.177V168.656H813.907L805.327 189.665H801.861L793.282 168.642H793.012V189.707H788.836V160.616ZM824.734 189.707V160.616H835.104C837.367 160.616 839.242 161.028 840.729 161.852C842.215 162.676 843.328 163.803 844.067 165.233C844.805 166.653 845.175 168.254 845.175 170.034C845.175 171.824 844.801 173.434 844.052 174.864C843.314 176.284 842.196 177.411 840.7 178.244C839.213 179.068 837.343 179.48 835.089 179.48H827.959V175.758H834.692C836.122 175.758 837.282 175.512 838.172 175.02C839.062 174.518 839.715 173.836 840.132 172.974C840.549 172.113 840.757 171.132 840.757 170.034C840.757 168.936 840.549 167.96 840.132 167.108C839.715 166.256 839.057 165.588 838.158 165.105C837.267 164.622 836.093 164.381 834.635 164.381H829.123V189.707H824.734ZM866.187 168.258C866.035 166.914 865.41 165.872 864.312 165.133C863.213 164.385 861.831 164.011 860.164 164.011C858.971 164.011 857.939 164.201 857.067 164.579C856.196 164.949 855.519 165.46 855.036 166.114C854.563 166.757 854.326 167.491 854.326 168.315C854.326 169.007 854.487 169.603 854.809 170.105C855.14 170.607 855.571 171.028 856.101 171.369C856.641 171.701 857.219 171.98 857.834 172.207C858.45 172.425 859.042 172.605 859.61 172.747L862.451 173.486C863.379 173.713 864.331 174.021 865.306 174.409C866.281 174.797 867.186 175.309 868.019 175.943C868.852 176.578 869.525 177.364 870.036 178.301C870.557 179.239 870.817 180.361 870.817 181.668C870.817 183.315 870.391 184.778 869.539 186.057C868.696 187.335 867.47 188.344 865.86 189.082C864.26 189.821 862.323 190.19 860.05 190.19C857.872 190.19 855.988 189.845 854.397 189.153C852.806 188.462 851.561 187.482 850.661 186.213C849.761 184.935 849.264 183.419 849.17 181.668H853.573C853.658 182.719 853.999 183.595 854.596 184.295C855.202 184.987 855.974 185.503 856.911 185.844C857.858 186.175 858.895 186.341 860.022 186.341C861.262 186.341 862.366 186.147 863.332 185.758C864.307 185.361 865.074 184.811 865.633 184.111C866.191 183.4 866.471 182.572 866.471 181.625C866.471 180.763 866.225 180.058 865.732 179.508C865.249 178.959 864.591 178.505 863.758 178.145C862.934 177.785 862.001 177.468 860.959 177.193L857.522 176.256C855.192 175.621 853.346 174.688 851.982 173.457C850.628 172.226 849.951 170.597 849.951 168.571C849.951 166.895 850.405 165.432 851.315 164.182C852.224 162.932 853.455 161.961 855.008 161.27C856.561 160.569 858.313 160.219 860.263 160.219C862.233 160.219 863.971 160.564 865.476 161.256C866.992 161.947 868.185 162.899 869.056 164.111C869.927 165.313 870.382 166.696 870.42 168.258H866.187Z" fill="white"/>
<g filter="url(#filter3_d_2_61)">
<circle cx="287.665" cy="176.628" r="106.402" fill="#C5C5C5"/>
</g>
<path d="M268.396 160.616H272.8V179.75C272.8 181.786 272.321 183.59 271.365 185.162C270.408 186.724 269.064 187.955 267.331 188.855C265.598 189.745 263.567 190.19 261.237 190.19C258.917 190.19 256.89 189.745 255.157 188.855C253.425 187.955 252.08 186.724 251.123 185.162C250.167 183.59 249.689 181.786 249.689 179.75V160.616H254.078V179.395C254.078 180.711 254.367 181.881 254.944 182.903C255.532 183.926 256.36 184.731 257.43 185.318C258.5 185.896 259.769 186.185 261.237 186.185C262.714 186.185 263.988 185.896 265.058 185.318C266.138 184.731 266.961 183.926 267.53 182.903C268.107 181.881 268.396 180.711 268.396 179.395V160.616ZM303.343 170.077H298.911C298.741 169.13 298.423 168.296 297.959 167.577C297.495 166.857 296.927 166.246 296.255 165.744C295.582 165.242 294.83 164.864 293.996 164.608C293.172 164.352 292.296 164.224 291.368 164.224C289.692 164.224 288.191 164.646 286.866 165.489C285.549 166.331 284.508 167.567 283.741 169.196C282.983 170.825 282.604 172.813 282.604 175.162C282.604 177.529 282.983 179.527 283.741 181.156C284.508 182.785 285.554 184.016 286.88 184.849C288.206 185.683 289.697 186.099 291.354 186.099C292.273 186.099 293.144 185.976 293.968 185.73C294.801 185.474 295.554 185.1 296.226 184.608C296.899 184.115 297.467 183.514 297.931 182.804C298.404 182.084 298.731 181.26 298.911 180.332L303.343 180.347C303.106 181.776 302.647 183.093 301.965 184.295C301.293 185.489 300.426 186.521 299.366 187.392C298.314 188.254 297.112 188.921 295.758 189.395C294.403 189.868 292.926 190.105 291.326 190.105C288.807 190.105 286.563 189.508 284.593 188.315C282.623 187.113 281.07 185.394 279.934 183.159C278.807 180.924 278.243 178.258 278.243 175.162C278.243 172.056 278.812 169.39 279.948 167.165C281.084 164.93 282.637 163.216 284.607 162.023C286.577 160.82 288.816 160.219 291.326 160.219C292.869 160.219 294.309 160.441 295.644 160.886C296.989 161.322 298.196 161.966 299.266 162.818C300.336 163.661 301.222 164.693 301.922 165.915C302.623 167.127 303.097 168.514 303.343 170.077ZM308.595 189.707V160.616H326.635V164.395H312.984V173.258H325.342V177.023H312.984V189.707H308.595Z" fill="white"/>
<defs>
<filter id="filter0_d_2_61" x="26.1647" y="152.446" width="1607.04" height="52.1837" filterUnits="userSpaceOnUse" color-interpolation-filters="sRGB">
<feFlood flood-opacity="0" result="BackgroundImageFix"/>
<feColorMatrix in="SourceAlpha" type="matrix" values="0 0 0 0 0 0 0 0 0 0 0 0 0 0 0 0 0 0 127 0" result="hardAlpha"/>
<feOffset dy="4"/>
<feGaussianBlur stdDeviation="2"/>
<feComposite in2="hardAlpha" operator="out"/>
<feColorMatrix type="matrix" values="0 0 0 0 0 0 0 0 0 0 0 0 0 0 0 0 0 0 0.25 0"/>
<feBlend mode="normal" in2="BackgroundImageFix" result="effect1_dropShadow_2_61"/>
<feBlend mode="normal" in="SourceGraphic" in2="effect1_dropShadow_2_61" result="shape"/>
</filter>
<filter id="filter1_d_2_61" x="1258.31" y="70.2256" width="220.805" height="220.805" filterUnits="userSpaceOnUse" color-interpolation-filters="sRGB">
<feFlood flood-opacity="0" result="BackgroundImageFix"/>
<feColorMatrix in="SourceAlpha" type="matrix" values="0 0 0 0 0 0 0 0 0 0 0 0 0 0 0 0 0 0 127 0" result="hardAlpha"/>
<feOffset dy="4"/>
<feGaussianBlur stdDeviation="2"/>
<feComposite in2="hardAlpha" operator="out"/>
<feColorMatrix type="matrix" values="0 0 0 0 0 0 0 0 0 0 0 0 0 0 0 0 0 0 0.25 0"/>
<feBlend mode="normal" in2="BackgroundImageFix" result="effect1_dropShadow_2_61"/>
<feBlend mode="normal" in="SourceGraphic" in2="effect1_dropShadow_2_61" result="shape"/>
</filter>
<filter id="filter2_d_2_61" x="717.787" y="70.2256" width="220.805" height="220.805" filterUnits="userSpaceOnUse" color-interpolation-filters="sRGB">
<feFlood flood-opacity="0" result="BackgroundImageFix"/>
<feColorMatrix in="SourceAlpha" type="matrix" values="0 0 0 0 0 0 0 0 0 0 0 0 0 0 0 0 0 0 127 0" result="hardAlpha"/>
<feOffset dy="4"/>
<feGaussianBlur stdDeviation="2"/>
<feComposite in2="hardAlpha" operator="out"/>
<feColorMatrix type="matrix" values="0 0 0 0 0 0 0 0 0 0 0 0 0 0 0 0 0 0 0.25 0"/>
<feBlend mode="normal" in2="BackgroundImageFix" result="effect1_dropShadow_2_61"/>
<feBlend mode="normal" in="SourceGraphic" in2="effect1_dropShadow_2_61" result="shape"/>
</filter>
<filter id="filter3_d_2_61" x="177.262" y="70.2256" width="220.805" height="220.805" filterUnits="userSpaceOnUse" color-interpolation-filters="sRGB">
<feFlood flood-opacity="0" result="BackgroundImageFix"/>
<feColorMatrix in="SourceAlpha" type="matrix" values="0 0 0 0 0 0 0 0 0 0 0 0 0 0 0 0 0 0 127 0" result="hardAlpha"/>
<feOffset dy="4"/>
<feGaussianBlur stdDeviation="2"/>
<feComposite in2="hardAlpha" operator="out"/>
<feColorMatrix type="matrix" values="0 0 0 0 0 0 0 0 0 0 0 0 0 0 0 0 0 0 0.25 0"/>
<feBlend mode="normal" in2="BackgroundImageFix" result="effect1_dropShadow_2_61"/>
<feBlend mode="normal" in="SourceGraphic" in2="effect1_dropShadow_2_61" result="shape"/>
</filter>
</defs>
</svg>
